<?xml version="1.0" encoding="utf-8" standalone="no"?>
<!DOCTYPE svg PUBLIC "-//W3C//DTD SVG 1.1//EN"
  "http://www.w3.org/Graphics/SVG/1.1/DTD/svg11.dtd">
<svg xmlns:xlink="http://www.w3.org/1999/xlink" width="237.6pt" height="308.237813pt" viewBox="0 0 237.6 308.237813" xmlns="http://www.w3.org/2000/svg" version="1.1">
 <metadata>
  <rdf:RDF xmlns:dc="http://purl.org/dc/elements/1.1/" xmlns:cc="http://creativecommons.org/ns#" xmlns:rdf="http://www.w3.org/1999/02/22-rdf-syntax-ns#">
   <cc:Work>
    <dc:type rdf:resource="http://purl.org/dc/dcmitype/StillImage"/>
    <dc:date>2025-05-16T15:45:19.338686</dc:date>
    <dc:format>image/svg+xml</dc:format>
    <dc:creator>
     <cc:Agent>
      <dc:title>Matplotlib v3.9.2, https://matplotlib.org/</dc:title>
     </cc:Agent>
    </dc:creator>
   </cc:Work>
  </rdf:RDF>
 </metadata>
 <defs>
  <style type="text/css">*{stroke-linejoin: round; stroke-linecap: butt}</style>
 </defs>
 <g id="figure_1">
  <g id="patch_1">
   <path d="M 0 308.237813 
L 237.6 308.237813 
L 237.6 0 
L 0 0 
z
" style="fill: #ffffff"/>
  </g>
  <g id="axes_1">
   <g id="patch_2">
    <path d="M 7.2 301.037813 
L 230.4 301.037813 
L 230.4 23.837812 
L 7.2 23.837812 
z
" style="fill: #ffffff"/>
   </g>
   <g id="patch_3">
    <path d="M 82.171581 208.903167 
L 57.079548 200.334936 
L 57.079548 230.901681 
L 82.171581 208.903167 
z
" clip-path="url(#p28bfbd86ce)" style="fill: none"/>
   </g>
   <g id="patch_4">
    <path d="M 154.453599 209.061736 
L 178.447972 200.565167 
L 178.447972 230.901681 
L 154.453599 209.061736 
z
" clip-path="url(#p28bfbd86ce)" style="fill: none"/>
   </g>
   <g id="patch_5">
    <path d="M 28.814758 173.223821 
L 33.616723 197.988967 
L 42.531965 220.724575 
L 57.079548 240.205314 
L 75.407534 256.196262 
L 57.079548 187.18371 
z
" clip-path="url(#p28bfbd86ce)" style="fill: #3787c0; stroke: #3787c0; stroke-linejoin: miter"/>
   </g>
   <g id="patch_6">
    <path d="M 203.960842 171.828339 
L 199.523971 196.269097 
L 191.596972 219.150531 
L 178.447972 239.125782 
L 161.397137 255.791593 
L 178.447972 187.18371 
z
" clip-path="url(#p28bfbd86ce)" style="fill: #3787c0; stroke: #3787c0; stroke-linejoin: miter"/>
   </g>
   <g id="patch_7">
    <path d="M 28.814758 173.223821 
L 26.285813 148.090984 
L 25.703619 122.932984 
L 44.1448 109.461049 
L 61.65693 125.408572 
z
" clip-path="url(#p28bfbd86ce)" style="fill: #3787c0; stroke: #3787c0; stroke-linejoin: miter"/>
   </g>
   <g id="patch_8">
    <path d="M 203.960842 171.828339 
L 206.25472 147.419618 
L 206.391516 123.19619 
L 192.277193 109.286333 
L 175.548814 126.916367 
z
" clip-path="url(#p28bfbd86ce)" style="fill: #3787c0; stroke: #3787c0; stroke-linejoin: miter"/>
   </g>
   <g id="patch_9">
    <path d="M 119.581715 230.901681 
L 108.624285 229.571246 
L 94.689369 222.417747 
L 75.407534 256.196262 
L 96.459426 268.428941 
L 119.581715 230.901681 
z
" clip-path="url(#p28bfbd86ce)" style="fill: none"/>
   </g>
   <g id="patch_10">
    <path d="M 119.581715 230.901681 
L 131.156766 229.358445 
L 144.073004 222.27584 
L 161.397137 255.791593 
L 142.007663 268.290217 
L 119.581715 230.901681 
z
" clip-path="url(#p28bfbd86ce)" style="fill: none"/>
   </g>
   <g id="patch_11">
    <path d="M 82.171581 208.903167 
L 96.459426 268.428941 
L 75.407534 256.196262 
L 82.171581 208.903167 
z
" clip-path="url(#p28bfbd86ce)" style="fill: none"/>
   </g>
   <g id="patch_12">
    <path d="M 154.453599 209.061736 
L 142.007663 268.290217 
L 161.397137 255.791593 
L 154.453599 209.061736 
z
" clip-path="url(#p28bfbd86ce)" style="fill: none"/>
   </g>
   <g id="patch_13">
    <path d="M 108.624285 229.571246 
L 96.459426 268.428941 
L 119.41378 272.389426 
L 108.624285 229.571246 
z
" clip-path="url(#p28bfbd86ce)" style="fill: none"/>
   </g>
   <g id="patch_14">
    <path d="M 131.156766 229.358445 
L 142.007663 268.290217 
L 119.41378 272.389426 
L 131.156766 229.358445 
z
" clip-path="url(#p28bfbd86ce)" style="fill: none"/>
   </g>
   <g id="patch_15">
    <path d="M 42.531965 220.724575 
L 57.079548 240.205314 
L 82.171581 208.903167 
L 42.531965 220.724575 
z
" clip-path="url(#p28bfbd86ce)" style="fill: none"/>
   </g>
   <g id="patch_16">
    <path d="M 178.447972 239.125782 
L 191.596972 219.150531 
L 154.453599 209.061736 
L 178.447972 239.125782 
z
" clip-path="url(#p28bfbd86ce)" style="fill: none"/>
   </g>
   <g id="patch_17">
    <path d="M 119.700956 123.856003 
L 95.420078 128.318077 
L 85.103752 121.430656 
L 73.275059 120.970807 
L 61.65693 125.408572 
L 44.1448 109.461049 
L 55.708358 99.695485 
L 71.372545 96.715038 
L 87.451923 98.671011 
L 102.223701 104.069715 
L 119.700956 123.856003 
z
" clip-path="url(#p28bfbd86ce)" style="fill: none"/>
   </g>
   <g id="patch_18">
    <path d="M 119.700956 123.856003 
L 95.420078 128.318077 
L 102.223701 104.069715 
L 119.700956 123.856003 
z
" clip-path="url(#p28bfbd86ce)" style="fill: none"/>
   </g>
   <g id="patch_19">
    <path d="M 119.700956 123.856003 
L 135.86384 103.413836 
L 150.868646 98.356258 
L 166.610927 96.451026 
L 181.641212 99.555394 
L 192.277193 109.286333 
L 175.548814 126.916367 
L 165.003583 121.851778 
L 153.329151 121.742093 
L 142.188167 128.80719 
L 119.700956 123.856003 
z
" clip-path="url(#p28bfbd86ce)" style="fill: none"/>
   </g>
   <g id="patch_20">
    <path d="M 119.700956 123.856003 
L 142.188167 128.80719 
L 135.86384 103.413836 
L 119.700956 123.856003 
z
" clip-path="url(#p28bfbd86ce)" style="fill: none"/>
   </g>
   <g id="patch_21">
    <path d="M 119.656593 139.563763 
L 150.868646 98.356258 
L 166.610927 96.451026 
L 119.656593 139.563763 
z
" clip-path="url(#p28bfbd86ce)" style="fill: none"/>
   </g>
   <g id="patch_22">
    <path d="M 89.111091 128.318077 
L 95.420078 140.442259 
L 84.480173 164.484178 
L 72.849024 164.127095 
L 61.65693 159.937349 
L 73.635284 142.67296 
L 67.965917 125.408572 
z
" clip-path="url(#p28bfbd86ce)" style="fill: #3787c0; stroke: #3787c0; stroke-linejoin: miter"/>
   </g>
   <g id="patch_23">
    <path d="M 148.27274 128.80719 
L 153.760419 164.083468 
L 165.301176 163.853248 
L 175.548814 160.234074 
L 163.990591 143.57522 
L 169.464241 126.916367 
z
" clip-path="url(#p28bfbd86ce)" style="fill: #3787c0; stroke: #3787c0; stroke-linejoin: miter"/>
   </g>
   <g id="patch_24">
    <path d="M 72.849024 129.598318 
L 84.480173 129.955401 
L 95.70014 203.139161 
L 72.849024 129.598318 
z
" clip-path="url(#p28bfbd86ce)" style="fill: none"/>
   </g>
   <g id="patch_25">
    <path d="M 153.760419 130.765761 
L 165.301176 130.535541 
L 142.632926 203.780346 
L 153.760419 130.765761 
z
" clip-path="url(#p28bfbd86ce)" style="fill: none"/>
   </g>
   <g id="patch_26">
    <path d="M 95.420078 128.318077 
L 95.70014 203.139161 
L 99.272698 180.843238 
L 95.420078 128.318077 
z
" clip-path="url(#p28bfbd86ce)" style="fill: none"/>
   </g>
   <g id="patch_27">
    <path d="M 139.087865 181.086194 
L 142.188167 128.80719 
L 142.632926 203.780346 
L 139.087865 181.086194 
z
" clip-path="url(#p28bfbd86ce)" style="fill: none"/>
   </g>
   <g id="patch_28">
    <path d="M 82.171581 208.903167 
L 33.616723 197.988967 
L 28.814758 173.223821 
z
" clip-path="url(#p28bfbd86ce)" style="fill: #3787c0; stroke: #3787c0; stroke-linejoin: miter"/>
   </g>
   <g id="patch_29">
    <path d="M 154.453599 209.061736 
L 199.523971 196.269097 
L 203.960842 171.828339 
z
" clip-path="url(#p28bfbd86ce)" style="fill: #3787c0; stroke: #3787c0; stroke-linejoin: miter"/>
   </g>
   <g id="patch_30">
    <path d="M 65.862921 119.346481 
L 61.65693 113.284391 
L 73.275059 108.846625 
L 85.103752 109.306475 
L 95.420078 116.193896 
L 91.214087 122.255987 
L 89.111091 128.318077 
L 91.214087 134.380168 
L 95.420078 140.442259 
L 84.480173 142.079583 
L 72.849024 141.7225 
L 61.65693 137.532753 
L 65.862921 131.470663 
L 67.965917 125.408572 
z
" clip-path="url(#p28bfbd86ce)" style="fill: #3787c0; stroke: #3787c0; stroke-linejoin: miter"/>
   </g>
   <g id="patch_31">
    <path d="M 146.244549 122.960732 
L 142.188167 117.114273 
L 153.329151 110.049175 
L 165.003583 110.15886 
L 175.548814 115.223449 
L 171.492432 121.069908 
L 169.464241 126.916367 
L 171.492432 132.762825 
L 175.548814 138.609284 
L 165.301176 142.228458 
L 153.760419 142.458679 
L 142.188167 140.500108 
L 146.244549 134.653649 
L 148.27274 128.80719 
z
" clip-path="url(#p28bfbd86ce)" style="fill: #3787c0; stroke: #3787c0; stroke-linejoin: miter"/>
   </g>
   <g id="patch_32">
    <path d="M 63.759925 122.983736 
L 61.65693 119.346481 
L 73.275059 114.908716 
L 85.103752 115.368565 
L 95.420078 122.255987 
L 93.317082 125.893241 
L 92.896483 128.318077 
L 93.317082 130.742914 
L 95.420078 134.380168 
L 84.480173 136.017492 
L 72.849024 135.660409 
L 61.65693 131.470663 
L 63.759925 127.833408 
L 64.180524 125.408572 
L 63.759925 122.983736 
z
" clip-path="url(#p28bfbd86ce)" style="fill: none"/>
   </g>
   <g id="patch_33">
    <path d="M 144.216358 126.468607 
L 142.188167 122.960732 
L 153.329151 115.895634 
L 165.003583 116.005319 
L 175.548814 121.069908 
L 173.520623 124.577783 
L 173.114985 126.916367 
L 173.520623 129.25495 
L 175.548814 132.762825 
L 165.301176 136.382 
L 153.760419 136.61222 
L 142.188167 134.653649 
L 144.216358 131.145774 
L 144.621996 128.80719 
L 144.216358 126.468607 
z
" clip-path="url(#p28bfbd86ce)" style="fill: none"/>
   </g>
   <g id="patch_34">
    <path d="M 82.171581 208.903167 
L 94.689369 222.417747 
L 108.624285 229.571246 
L 119.581715 230.901681 
L 131.156766 229.358445 
L 144.073004 222.27584 
L 154.453599 209.061736 
L 144.073004 243.019713 
L 131.156766 250.102318 
L 119.581715 251.645553 
L 108.624285 250.315119 
L 94.689369 243.161619 
L 82.171581 208.903167 
z
" clip-path="url(#p28bfbd86ce)" style="fill: none"/>
   </g>
   <g id="patch_35">
    <path d="M 82.171581 208.903167 
L 95.70014 203.139161 
L 109.987206 200.334936 
L 119.212332 202.878862 
L 129.253938 200.565167 
L 142.632926 203.780346 
L 154.453599 209.061736 
L 119.698159 187.18371 
L 82.171581 208.903167 
z
" clip-path="url(#p28bfbd86ce)" style="fill: none"/>
   </g>
   <g id="patch_36">
    <path d="M 119.656593 139.563763 
L 71.372545 96.715038 
L 87.451923 98.671011 
L 119.656593 139.563763 
z
" clip-path="url(#p28bfbd86ce)" style="fill: none"/>
   </g>
   <g id="patch_37">
    <path d="M 63.759925 122.983736 
L 61.65693 119.346481 
L 73.275059 114.908716 
L 85.103752 115.368565 
L 95.420078 122.255987 
L 93.317082 125.893241 
L 92.896483 128.318077 
L 93.317082 130.742914 
L 95.420078 134.380168 
L 84.480173 136.017492 
L 72.849024 135.660409 
L 61.65693 131.470663 
L 63.759925 127.833408 
L 64.180524 125.408572 
L 63.759925 122.983736 
z
" clip-path="url(#p28bfbd86ce)" style="fill: none"/>
   </g>
   <g id="patch_38">
    <path d="M 144.216358 126.468607 
L 142.188167 122.960732 
L 153.329151 115.895634 
L 165.003583 116.005319 
L 175.548814 121.069908 
L 173.520623 124.577783 
L 173.114985 126.916367 
L 173.520623 129.25495 
L 175.548814 132.762825 
L 165.301176 136.382 
L 153.760419 136.61222 
L 142.188167 134.653649 
L 144.216358 131.145774 
L 144.621996 128.80719 
L 144.216358 126.468607 
z
" clip-path="url(#p28bfbd86ce)" style="fill: none"/>
   </g>
   <g id="patch_39">
    <path d="M 28.814758 173.223821 
L 33.616723 197.988967 
L 42.531965 220.724575 
L 57.079548 240.205314 
L 75.407534 256.196262 
L 57.079548 187.18371 
z
" clip-path="url(#p28bfbd86ce)" style="fill: #3787c0; stroke: #3787c0; stroke-linejoin: miter"/>
   </g>
   <g id="patch_40">
    <path d="M 203.960842 171.828339 
L 199.523971 196.269097 
L 191.596972 219.150531 
L 178.447972 239.125782 
L 161.397137 255.791593 
L 178.447972 187.18371 
z
" clip-path="url(#p28bfbd86ce)" style="fill: #3787c0; stroke: #3787c0; stroke-linejoin: miter"/>
   </g>
   <g id="patch_41">
    <path d="M 28.814758 173.223821 
L 26.285813 148.090984 
L 25.703619 122.932984 
L 44.1448 109.461049 
L 61.65693 125.408572 
z
" clip-path="url(#p28bfbd86ce)" style="fill: #3787c0; stroke: #3787c0; stroke-linejoin: miter"/>
   </g>
   <g id="patch_42">
    <path d="M 203.960842 171.828339 
L 206.25472 147.419618 
L 206.391516 123.19619 
L 192.277193 109.286333 
L 175.548814 126.916367 
z
" clip-path="url(#p28bfbd86ce)" style="fill: #3787c0; stroke: #3787c0; stroke-linejoin: miter"/>
   </g>
   <g id="patch_43">
    <path d="M 61.65693 125.408572 
L 73.275059 120.970807 
L 85.103752 121.430656 
L 95.420078 128.318077 
L 84.480173 129.955401 
L 72.849024 129.598318 
z
" clip-path="url(#p28bfbd86ce)" style="fill: #ffffff; stroke: #ffffff; stroke-linejoin: miter"/>
   </g>
   <g id="patch_44">
    <path d="M 142.188167 128.80719 
L 153.329151 121.742093 
L 165.003583 121.851778 
L 175.548814 126.916367 
L 165.301176 130.535541 
L 153.760419 130.765761 
z
" clip-path="url(#p28bfbd86ce)" style="fill: #ffffff; stroke: #ffffff; stroke-linejoin: miter"/>
   </g>
   <g id="patch_45">
    <path d="M 86.398956 209.42116 
L 109.593058 208.964166 
L 119.360193 210.310574 
L 129.633429 209.046694 
L 150.257584 209.660962 
L 130.361724 217.980882 
L 119.489245 219.417424 
L 109.168566 218.181569 
z
" clip-path="url(#p28bfbd86ce)" style="fill: #ffffff; stroke: #ffffff; stroke-linejoin: miter"/>
   </g>
   <g id="patch_46">
    <path d="M 78.927002 122.058344 
C 79.873821 122.058344 80.781989 122.419798 81.451491 123.0631 
C 82.120993 123.706402 82.497169 124.579029 82.497169 125.488796 
C 82.497169 126.398562 82.120993 127.271189 81.451491 127.914491 
C 80.781989 128.557793 79.873821 128.919247 78.927002 128.919247 
C 77.980183 128.919247 77.072015 128.557793 76.402513 127.914491 
C 75.73301 127.271189 75.356835 126.398562 75.356835 125.488796 
C 75.356835 124.579029 75.73301 123.706402 76.402513 123.0631 
C 77.072015 122.419798 77.980183 122.058344 78.927002 122.058344 
z
" clip-path="url(#p28bfbd86ce)" style="stroke: #000000; stroke-linejoin: miter"/>
   </g>
   <g id="patch_47">
    <path d="M 159.348582 122.682307 
C 160.326048 122.682307 161.26361 123.05546 161.954783 123.719584 
C 162.645955 124.383708 163.034306 125.28458 163.034306 126.223793 
C 163.034306 127.163006 162.645955 128.063878 161.954783 128.728002 
C 161.26361 129.392126 160.326048 129.765279 159.348582 129.765279 
C 158.371117 129.765279 157.433554 129.392126 156.742382 128.728002 
C 156.05121 128.063878 155.662859 127.163006 155.662859 126.223793 
C 155.662859 125.28458 156.05121 124.383708 156.742382 123.719584 
C 157.433554 123.05546 158.371117 122.682307 159.348582 122.682307 
z
" clip-path="url(#p28bfbd86ce)" style="stroke: #000000; stroke-linejoin: miter"/>
   </g>
   <g id="Quiver_1">
    <path d="M 79.485002 125.488796 
L 79.206002 125.005553 
L 78.648002 125.005553 
L 78.369002 125.488796 
L 78.648002 125.972038 
L 79.206002 125.972038 
L 79.485002 125.488796 
L 79.206002 125.005553 
" clip-path="url(#p28bfbd86ce)" style="fill: #ff0000"/>
    <path d="M 159.906582 126.223793 
L 159.627582 125.740551 
L 159.069582 125.740551 
L 158.790582 126.223793 
L 159.069582 126.707035 
L 159.627582 126.707035 
L 159.906582 126.223793 
L 159.627582 125.740551 
" clip-path="url(#p28bfbd86ce)" style="fill: #ff0000"/>
   </g>
   <g id="line2d_1">
    <path d="M 25.703619 122.932984 
L 26.285813 148.090984 
L 28.814758 173.223821 
L 33.616723 197.988967 
L 42.531965 220.724575 
L 57.079548 240.205314 
L 75.407534 256.196262 
L 96.459426 268.428941 
L 119.41378 272.389426 
L 142.007663 268.290217 
L 161.397137 255.791593 
L 178.447972 239.125782 
L 191.596972 219.150531 
L 199.523971 196.269097 
L 203.960842 171.828339 
L 206.25472 147.419618 
L 206.391516 123.19619 
" clip-path="url(#p28bfbd86ce)" style="fill: none; stroke: #000000; stroke-linecap: square"/>
   </g>
   <g id="line2d_2">
    <path d="M 61.65693 125.408572 
L 73.275059 120.970807 
L 85.103752 121.430656 
L 95.420078 128.318077 
L 84.480173 129.955401 
L 72.849024 129.598318 
L 61.65693 125.408572 
" clip-path="url(#p28bfbd86ce)" style="fill: none; stroke: #000000; stroke-linecap: square"/>
   </g>
   <g id="line2d_3">
    <path d="M 142.188167 128.80719 
L 153.329151 121.742093 
L 165.003583 121.851778 
L 175.548814 126.916367 
L 165.301176 130.535541 
L 153.760419 130.765761 
L 142.188167 128.80719 
" clip-path="url(#p28bfbd86ce)" style="fill: none; stroke: #000000; stroke-linecap: square"/>
   </g>
   <g id="line2d_4">
    <path d="M 44.1448 109.461049 
L 55.708358 99.695485 
L 71.372545 96.715038 
L 87.451923 98.671011 
L 102.223701 104.069715 
" clip-path="url(#p28bfbd86ce)" style="fill: none; stroke: #000000; stroke-linecap: square"/>
   </g>
   <g id="line2d_5">
    <path d="M 135.86384 103.413836 
L 150.868646 98.356258 
L 166.610927 96.451026 
L 181.641212 99.555394 
L 192.277193 109.286333 
" clip-path="url(#p28bfbd86ce)" style="fill: none; stroke: #000000; stroke-linecap: square"/>
   </g>
   <g id="line2d_6">
    <path d="M 82.171581 208.903167 
L 95.70014 203.139161 
L 109.987206 200.334936 
L 119.212332 202.878862 
L 129.253938 200.565167 
L 142.632926 203.780346 
L 154.453599 209.061736 
L 150.257584 209.660962 
L 129.633429 209.046694 
L 119.360193 210.310574 
L 109.593058 208.964166 
L 86.398956 209.42116 
L 82.171581 208.903167 
" clip-path="url(#p28bfbd86ce)" style="fill: none; stroke: #000000; stroke-linecap: square"/>
   </g>
   <g id="line2d_7">
    <path d="M 82.171581 208.903167 
L 86.398956 209.42116 
L 109.168566 218.181569 
L 119.489245 219.417424 
L 130.361724 217.980882 
L 150.257584 209.660962 
L 154.453599 209.061736 
L 144.073004 222.27584 
L 131.156766 229.358445 
L 119.581715 230.901681 
L 108.624285 229.571246 
L 94.689369 222.417747 
L 82.171581 208.903167 
" clip-path="url(#p28bfbd86ce)" style="fill: none; stroke: #000000; stroke-linecap: square"/>
   </g>
   <g id="line2d_8">
    <path d="M 119.700956 123.856003 
L 119.656593 139.563763 
L 119.905455 154.734061 
L 120.177569 170.014084 
" clip-path="url(#p28bfbd86ce)" style="fill: none; stroke: #000000; stroke-linecap: square"/>
   </g>
   <g id="line2d_9">
    <path d="M 99.272698 180.843238 
L 108.90498 184.639111 
L 119.698159 187.18371 
L 130.071606 184.739527 
L 139.087865 181.086194 
" clip-path="url(#p28bfbd86ce)" style="fill: none; stroke: #000000; stroke-linecap: square"/>
   </g>
   <g id="patch_48">
    <path d="M 7.2 301.037813 
L 7.2 23.837813 
" style="fill: none; stroke: #000000; stroke-width: 0.8; stroke-linejoin: miter; stroke-linecap: square"/>
   </g>
   <g id="patch_49">
    <path d="M 230.4 301.037813 
L 230.4 23.837813 
" style="fill: none; stroke: #000000; stroke-width: 0.8; stroke-linejoin: miter; stroke-linecap: square"/>
   </g>
   <g id="patch_50">
    <path d="M 7.2 301.037813 
L 230.4 301.037813 
" style="fill: none; stroke: #000000; stroke-width: 0.8; stroke-linejoin: miter; stroke-linecap: square"/>
   </g>
   <g id="patch_51">
    <path d="M 7.2 23.837812 
L 230.4 23.837812 
" style="fill: none; stroke: #000000; stroke-width: 0.8; stroke-linejoin: miter; stroke-linecap: square"/>
   </g>
   <g id="text_1">
    <!-- Smiling -->
    <g transform="translate(92.823437 17.837812) scale(0.14 -0.14)">
     <defs>
      <path id="DejaVuSans-53" d="M 3425 4513 
L 3425 3897 
Q 3066 4069 2747 4153 
Q 2428 4238 2131 4238 
Q 1616 4238 1336 4038 
Q 1056 3838 1056 3469 
Q 1056 3159 1242 3001 
Q 1428 2844 1947 2747 
L 2328 2669 
Q 3034 2534 3370 2195 
Q 3706 1856 3706 1288 
Q 3706 609 3251 259 
Q 2797 -91 1919 -91 
Q 1588 -91 1214 -16 
Q 841 59 441 206 
L 441 856 
Q 825 641 1194 531 
Q 1563 422 1919 422 
Q 2459 422 2753 634 
Q 3047 847 3047 1241 
Q 3047 1584 2836 1778 
Q 2625 1972 2144 2069 
L 1759 2144 
Q 1053 2284 737 2584 
Q 422 2884 422 3419 
Q 422 4038 858 4394 
Q 1294 4750 2059 4750 
Q 2388 4750 2728 4690 
Q 3069 4631 3425 4513 
z
" transform="scale(0.015625)"/>
      <path id="DejaVuSans-6d" d="M 3328 2828 
Q 3544 3216 3844 3400 
Q 4144 3584 4550 3584 
Q 5097 3584 5394 3201 
Q 5691 2819 5691 2113 
L 5691 0 
L 5113 0 
L 5113 2094 
Q 5113 2597 4934 2840 
Q 4756 3084 4391 3084 
Q 3944 3084 3684 2787 
Q 3425 2491 3425 1978 
L 3425 0 
L 2847 0 
L 2847 2094 
Q 2847 2600 2669 2842 
Q 2491 3084 2119 3084 
Q 1678 3084 1418 2786 
Q 1159 2488 1159 1978 
L 1159 0 
L 581 0 
L 581 3500 
L 1159 3500 
L 1159 2956 
Q 1356 3278 1631 3431 
Q 1906 3584 2284 3584 
Q 2666 3584 2933 3390 
Q 3200 3197 3328 2828 
z
" transform="scale(0.015625)"/>
      <path id="DejaVuSans-69" d="M 603 3500 
L 1178 3500 
L 1178 0 
L 603 0 
L 603 3500 
z
M 603 4863 
L 1178 4863 
L 1178 4134 
L 603 4134 
L 603 4863 
z
" transform="scale(0.015625)"/>
      <path id="DejaVuSans-6c" d="M 603 4863 
L 1178 4863 
L 1178 0 
L 603 0 
L 603 4863 
z
" transform="scale(0.015625)"/>
      <path id="DejaVuSans-6e" d="M 3513 2113 
L 3513 0 
L 2938 0 
L 2938 2094 
Q 2938 2591 2744 2837 
Q 2550 3084 2163 3084 
Q 1697 3084 1428 2787 
Q 1159 2491 1159 1978 
L 1159 0 
L 581 0 
L 581 3500 
L 1159 3500 
L 1159 2956 
Q 1366 3272 1645 3428 
Q 1925 3584 2291 3584 
Q 2894 3584 3203 3211 
Q 3513 2838 3513 2113 
z
" transform="scale(0.015625)"/>
      <path id="DejaVuSans-67" d="M 2906 1791 
Q 2906 2416 2648 2759 
Q 2391 3103 1925 3103 
Q 1463 3103 1205 2759 
Q 947 2416 947 1791 
Q 947 1169 1205 825 
Q 1463 481 1925 481 
Q 2391 481 2648 825 
Q 2906 1169 2906 1791 
z
M 3481 434 
Q 3481 -459 3084 -895 
Q 2688 -1331 1869 -1331 
Q 1566 -1331 1297 -1286 
Q 1028 -1241 775 -1147 
L 775 -588 
Q 1028 -725 1275 -790 
Q 1522 -856 1778 -856 
Q 2344 -856 2625 -561 
Q 2906 -266 2906 331 
L 2906 616 
Q 2728 306 2450 153 
Q 2172 0 1784 0 
Q 1141 0 747 490 
Q 353 981 353 1791 
Q 353 2603 747 3093 
Q 1141 3584 1784 3584 
Q 2172 3584 2450 3431 
Q 2728 3278 2906 2969 
L 2906 3500 
L 3481 3500 
L 3481 434 
z
" transform="scale(0.015625)"/>
     </defs>
     <use xlink:href="#DejaVuSans-53"/>
     <use xlink:href="#DejaVuSans-6d" x="63.476562"/>
     <use xlink:href="#DejaVuSans-69" x="160.888672"/>
     <use xlink:href="#DejaVuSans-6c" x="188.671875"/>
     <use xlink:href="#DejaVuSans-69" x="216.455078"/>
     <use xlink:href="#DejaVuSans-6e" x="244.238281"/>
     <use xlink:href="#DejaVuSans-67" x="307.617188"/>
    </g>
   </g>
  </g>
 </g>
 <defs>
  <clipPath id="p28bfbd86ce">
   <rect x="7.2" y="23.837812" width="223.2" height="277.2"/>
  </clipPath>
 </defs>
</svg>
