<?xml version="1.0" encoding="utf-8" standalone="no"?>
<!DOCTYPE svg PUBLIC "-//W3C//DTD SVG 1.1//EN"
  "http://www.w3.org/Graphics/SVG/1.1/DTD/svg11.dtd">
<svg xmlns:xlink="http://www.w3.org/1999/xlink" width="237.6pt" height="308.237813pt" viewBox="0 0 237.6 308.237813" xmlns="http://www.w3.org/2000/svg" version="1.1">
 <metadata>
  <rdf:RDF xmlns:dc="http://purl.org/dc/elements/1.1/" xmlns:cc="http://creativecommons.org/ns#" xmlns:rdf="http://www.w3.org/1999/02/22-rdf-syntax-ns#">
   <cc:Work>
    <dc:type rdf:resource="http://purl.org/dc/dcmitype/StillImage"/>
    <dc:date>2025-05-16T15:48:42.873716</dc:date>
    <dc:format>image/svg+xml</dc:format>
    <dc:creator>
     <cc:Agent>
      <dc:title>Matplotlib v3.9.2, https://matplotlib.org/</dc:title>
     </cc:Agent>
    </dc:creator>
   </cc:Work>
  </rdf:RDF>
 </metadata>
 <defs>
  <style type="text/css">*{stroke-linejoin: round; stroke-linecap: butt}</style>
 </defs>
 <g id="figure_1">
  <g id="patch_1">
   <path d="M 0 308.237813 
L 237.6 308.237813 
L 237.6 0 
L 0 0 
z
" style="fill: #ffffff"/>
  </g>
  <g id="axes_1">
   <g id="patch_2">
    <path d="M 7.2 301.037813 
L 230.4 301.037813 
L 230.4 23.837812 
L 7.2 23.837812 
z
" style="fill: #ffffff"/>
   </g>
   <g id="patch_3">
    <path d="M 86.427935 214.797153 
L 55.638418 200.066342 
L 55.638418 227.573174 
L 86.427935 214.797153 
z
" clip-path="url(#p0ea9f65f6f)" style="fill: none"/>
   </g>
   <g id="patch_4">
    <path d="M 151.027967 214.949714 
L 179.729881 200.164657 
L 179.729881 227.573174 
L 151.027967 214.949714 
z
" clip-path="url(#p0ea9f65f6f)" style="fill: none"/>
   </g>
   <g id="patch_5">
    <path d="M 28.367102 176.19783 
L 33.210696 199.902823 
L 41.625131 221.639684 
L 55.638418 240.375652 
L 74.154458 255.260557 
L 55.638418 185.165013 
L 28.367102 176.19783 
z
" clip-path="url(#p0ea9f65f6f)" style="fill: none"/>
   </g>
   <g id="patch_6">
    <path d="M 205.140132 175.386629 
L 200.493292 198.78228 
L 192.662151 220.679688 
L 179.729881 239.583795 
L 162.134902 254.693499 
L 179.729881 185.165013 
L 205.140132 175.386629 
z
" clip-path="url(#p0ea9f65f6f)" style="fill: none"/>
   </g>
   <g id="patch_7">
    <path d="M 28.367102 176.19783 
L 25.425829 151.892863 
L 25.16084 127.854888 
L 45.309784 108.324672 
L 61.394455 126.687128 
L 28.367102 176.19783 
z
" clip-path="url(#p0ea9f65f6f)" style="fill: none"/>
   </g>
   <g id="patch_8">
    <path d="M 205.140132 175.386629 
L 207.96745 151.831353 
L 208.305586 128.621939 
L 190.667888 107.267729 
L 175.209307 127.052825 
L 205.140132 175.386629 
z
" clip-path="url(#p0ea9f65f6f)" style="fill: none"/>
   </g>
   <g id="patch_9">
    <path d="M 119.736402 227.573174 
L 110.073154 226.907489 
L 97.98356 222.764383 
L 74.154458 255.260557 
L 95.698705 265.766111 
L 119.736402 227.573174 
z
" clip-path="url(#p0ea9f65f6f)" style="fill: none"/>
   </g>
   <g id="patch_10">
    <path d="M 119.736402 227.573174 
L 129.572538 226.740792 
L 140.853469 222.844648 
L 162.134902 254.693499 
L 142.027212 265.431001 
L 119.736402 227.573174 
z
" clip-path="url(#p0ea9f65f6f)" style="fill: none"/>
   </g>
   <g id="patch_11">
    <path d="M 86.427935 214.797153 
L 95.698705 265.766111 
L 74.154458 255.260557 
L 86.427935 214.797153 
z
" clip-path="url(#p0ea9f65f6f)" style="fill: none"/>
   </g>
   <g id="patch_12">
    <path d="M 151.027967 214.949714 
L 142.027212 265.431001 
L 162.134902 254.693499 
L 151.027967 214.949714 
z
" clip-path="url(#p0ea9f65f6f)" style="fill: none"/>
   </g>
   <g id="patch_13">
    <path d="M 110.073154 226.907489 
L 95.698705 265.766111 
L 119.085762 268.798896 
z
" clip-path="url(#p0ea9f65f6f)" style="fill: #3787c0; stroke: #3787c0; stroke-linejoin: miter"/>
   </g>
   <g id="patch_14">
    <path d="M 129.572538 226.740792 
L 142.027212 265.431001 
L 119.085762 268.798896 
z
" clip-path="url(#p0ea9f65f6f)" style="fill: #3787c0; stroke: #3787c0; stroke-linejoin: miter"/>
   </g>
   <g id="patch_15">
    <path d="M 41.625131 221.639684 
L 55.638418 240.375652 
L 86.427935 214.797153 
L 41.625131 221.639684 
z
" clip-path="url(#p0ea9f65f6f)" style="fill: none"/>
   </g>
   <g id="patch_16">
    <path d="M 179.729881 239.583795 
L 192.662151 220.679688 
L 151.027967 214.949714 
L 179.729881 239.583795 
z
" clip-path="url(#p0ea9f65f6f)" style="fill: none"/>
   </g>
   <g id="patch_17">
    <path d="M 119.633012 122.411767 
L 94.550304 128.183629 
L 84.116011 122.766048 
L 72.713916 122.790903 
L 61.394455 126.687128 
L 45.309784 108.324672 
L 56.820149 99.34145 
L 72.239245 95.090052 
L 88.211289 95.689068 
L 103.481827 99.722875 
L 119.633012 122.411767 
z
" clip-path="url(#p0ea9f65f6f)" style="fill: none"/>
   </g>
   <g id="patch_18">
    <path d="M 119.633012 122.411767 
L 94.550304 128.183629 
L 103.481827 99.722875 
z
" clip-path="url(#p0ea9f65f6f)" style="fill: #3787c0; stroke: #3787c0; stroke-linejoin: miter"/>
   </g>
   <g id="patch_19">
    <path d="M 119.633012 122.411767 
L 135.827044 99.153081 
L 150.603366 95.38334 
L 165.826374 94.835643 
L 180.21164 98.562621 
L 190.667888 107.267729 
L 175.209307 127.052825 
L 164.969783 122.952948 
L 153.821502 122.597252 
L 142.853727 128.061662 
L 119.633012 122.411767 
z
" clip-path="url(#p0ea9f65f6f)" style="fill: none"/>
   </g>
   <g id="patch_20">
    <path d="M 119.633012 122.411767 
L 142.853727 128.061662 
L 135.827044 99.153081 
z
" clip-path="url(#p0ea9f65f6f)" style="fill: #3787c0; stroke: #3787c0; stroke-linejoin: miter"/>
   </g>
   <g id="patch_21">
    <path d="M 119.637091 136.942116 
L 150.603366 95.38334 
L 165.826374 94.835643 
z
" clip-path="url(#p0ea9f65f6f)" style="fill: #3787c0; stroke: #3787c0; stroke-linejoin: miter"/>
   </g>
   <g id="patch_22">
    <path d="M 87.145328 128.183629 
L 94.550304 142.414006 
L 83.854363 166.008422 
L 72.452378 166.05429 
L 61.394455 162.308316 
L 73.751777 144.497722 
L 68.799431 126.687128 
L 87.145328 128.183629 
z
" clip-path="url(#p0ea9f65f6f)" style="fill: none"/>
   </g>
   <g id="patch_23">
    <path d="M 149.934297 128.061662 
L 153.971427 165.417592 
L 165.175642 165.435442 
L 175.209307 162.008613 
L 163.082818 144.530719 
L 168.128737 127.052825 
L 149.934297 128.061662 
z
" clip-path="url(#p0ea9f65f6f)" style="fill: none"/>
   </g>
   <g id="patch_24">
    <path d="M 72.452378 130.433102 
L 83.854363 130.387235 
L 97.839191 205.554603 
L 72.452378 130.433102 
z
" clip-path="url(#p0ea9f65f6f)" style="fill: none"/>
   </g>
   <g id="patch_25">
    <path d="M 153.971427 130.461804 
L 165.175642 130.479655 
L 140.634442 206.083228 
L 153.971427 130.461804 
z
" clip-path="url(#p0ea9f65f6f)" style="fill: none"/>
   </g>
   <g id="patch_26">
    <path d="M 94.550304 128.183629 
L 97.839191 205.554603 
L 100.52338 181.048625 
L 94.550304 128.183629 
z
" clip-path="url(#p0ea9f65f6f)" style="fill: none"/>
   </g>
   <g id="patch_27">
    <path d="M 137.681221 181.269969 
L 142.853727 128.061662 
L 140.634442 206.083228 
L 137.681221 181.269969 
z
" clip-path="url(#p0ea9f65f6f)" style="fill: none"/>
   </g>
   <g id="patch_28">
    <path d="M 86.427935 214.797153 
L 33.210696 199.902823 
L 28.367102 176.19783 
L 86.427935 214.797153 
z
" clip-path="url(#p0ea9f65f6f)" style="fill: none"/>
   </g>
   <g id="patch_29">
    <path d="M 151.027967 214.949714 
L 200.493292 198.78228 
L 205.140132 175.386629 
L 151.027967 214.949714 
z
" clip-path="url(#p0ea9f65f6f)" style="fill: none"/>
   </g>
   <g id="patch_30">
    <path d="M 66.331106 119.57194 
L 61.394455 112.456751 
L 72.713916 108.560526 
L 84.116011 108.535671 
L 94.550304 113.953252 
L 89.613653 121.068441 
L 87.145328 128.183629 
L 89.613653 135.298818 
L 94.550304 142.414006 
L 83.854363 144.617612 
L 72.452378 144.663479 
L 61.394455 140.917505 
L 66.331106 133.802317 
L 68.799431 126.687128 
L 66.331106 119.57194 
z
" clip-path="url(#p0ea9f65f6f)" style="fill: none"/>
   </g>
   <g id="patch_31">
    <path d="M 147.574107 121.258184 
L 142.853727 114.454706 
L 153.821502 108.990296 
L 164.969783 109.345992 
L 175.209307 113.44587 
L 170.488927 120.249347 
L 168.128737 127.052825 
L 170.488927 133.856303 
L 175.209307 140.659781 
L 165.175642 144.086611 
L 153.971427 144.06876 
L 142.853727 141.668618 
L 147.574107 134.86514 
L 149.934297 128.061662 
L 147.574107 121.258184 
z
" clip-path="url(#p0ea9f65f6f)" style="fill: none"/>
   </g>
   <g id="patch_32">
    <path d="M 63.86278 123.841053 
L 61.394455 119.57194 
L 72.713916 115.675715 
L 84.116011 115.650859 
L 94.550304 121.068441 
L 92.081978 125.337554 
L 91.588313 128.183629 
L 92.081978 131.029705 
L 94.550304 135.298818 
L 83.854363 137.502423 
L 72.452378 137.54829 
L 61.394455 133.802317 
L 63.86278 129.533204 
L 64.356445 126.687128 
L 63.86278 123.841053 
z
" clip-path="url(#p0ea9f65f6f)" style="fill: none"/>
   </g>
   <g id="patch_33">
    <path d="M 145.213917 125.340271 
L 142.853727 121.258184 
L 153.821502 115.793774 
L 164.969783 116.14947 
L 175.209307 120.249347 
L 172.849117 124.331434 
L 172.377079 127.052825 
L 172.849117 129.774217 
L 175.209307 133.856303 
L 165.175642 137.283133 
L 153.971427 137.265282 
L 142.853727 134.86514 
L 145.213917 130.783053 
L 145.685955 128.061662 
L 145.213917 125.340271 
z
" clip-path="url(#p0ea9f65f6f)" style="fill: none"/>
   </g>
   <g id="patch_34">
    <path d="M 86.427935 214.797153 
L 97.98356 222.764383 
L 110.073154 226.907489 
L 119.736402 227.573174 
L 129.572538 226.740792 
L 140.853469 222.844648 
L 151.027967 214.949714 
L 140.853469 243.457509 
L 129.572538 247.353653 
L 119.736402 248.186035 
L 110.073154 247.52035 
L 97.98356 243.377244 
L 86.427935 214.797153 
z
" clip-path="url(#p0ea9f65f6f)" style="fill: none"/>
   </g>
   <g id="patch_35">
    <path d="M 86.427935 214.797153 
L 97.839191 205.554603 
L 110.609467 200.066342 
L 119.29107 202.431499 
L 128.319952 200.164657 
L 140.634442 206.083228 
L 151.027967 214.949714 
L 119.432922 185.165013 
L 86.427935 214.797153 
z
" clip-path="url(#p0ea9f65f6f)" style="fill: none"/>
   </g>
   <g id="patch_36">
    <path d="M 119.637091 136.942116 
L 72.239245 95.090052 
L 88.211289 95.689068 
z
" clip-path="url(#p0ea9f65f6f)" style="fill: #3787c0; stroke: #3787c0; stroke-linejoin: miter"/>
   </g>
   <g id="patch_37">
    <path d="M 63.86278 123.841053 
L 61.394455 119.57194 
L 72.713916 115.675715 
L 84.116011 115.650859 
L 94.550304 121.068441 
L 92.081978 125.337554 
L 91.588313 128.183629 
L 92.081978 131.029705 
L 94.550304 135.298818 
L 83.854363 137.502423 
L 72.452378 137.54829 
L 61.394455 133.802317 
L 63.86278 129.533204 
L 64.356445 126.687128 
L 63.86278 123.841053 
z
" clip-path="url(#p0ea9f65f6f)" style="fill: none"/>
   </g>
   <g id="patch_38">
    <path d="M 145.213917 125.340271 
L 142.853727 121.258184 
L 153.821502 115.793774 
L 164.969783 116.14947 
L 175.209307 120.249347 
L 172.849117 124.331434 
L 172.377079 127.052825 
L 172.849117 129.774217 
L 175.209307 133.856303 
L 165.175642 137.283133 
L 153.971427 137.265282 
L 142.853727 134.86514 
L 145.213917 130.783053 
L 145.685955 128.061662 
L 145.213917 125.340271 
z
" clip-path="url(#p0ea9f65f6f)" style="fill: none"/>
   </g>
   <g id="patch_39">
    <path d="M 28.367102 176.19783 
L 33.210696 199.902823 
L 41.625131 221.639684 
L 55.638418 240.375652 
L 74.154458 255.260557 
L 55.638418 185.165013 
L 28.367102 176.19783 
z
" clip-path="url(#p0ea9f65f6f)" style="fill: none"/>
   </g>
   <g id="patch_40">
    <path d="M 205.140132 175.386629 
L 200.493292 198.78228 
L 192.662151 220.679688 
L 179.729881 239.583795 
L 162.134902 254.693499 
L 179.729881 185.165013 
L 205.140132 175.386629 
z
" clip-path="url(#p0ea9f65f6f)" style="fill: none"/>
   </g>
   <g id="patch_41">
    <path d="M 28.367102 176.19783 
L 25.425829 151.892863 
L 25.16084 127.854888 
L 45.309784 108.324672 
L 61.394455 126.687128 
L 28.367102 176.19783 
z
" clip-path="url(#p0ea9f65f6f)" style="fill: none"/>
   </g>
   <g id="patch_42">
    <path d="M 205.140132 175.386629 
L 207.96745 151.831353 
L 208.305586 128.621939 
L 190.667888 107.267729 
L 175.209307 127.052825 
L 205.140132 175.386629 
z
" clip-path="url(#p0ea9f65f6f)" style="fill: none"/>
   </g>
   <g id="patch_43">
    <path d="M 61.394455 126.687128 
L 72.713916 122.790903 
L 84.116011 122.766048 
L 94.550304 128.183629 
L 83.854363 130.387235 
L 72.452378 130.433102 
z
" clip-path="url(#p0ea9f65f6f)" style="fill: #ffffff; stroke: #ffffff; stroke-linejoin: miter"/>
   </g>
   <g id="patch_44">
    <path d="M 142.853727 128.061662 
L 153.821502 122.597252 
L 164.969783 122.952948 
L 175.209307 127.052825 
L 165.175642 130.479655 
L 153.971427 130.461804 
z
" clip-path="url(#p0ea9f65f6f)" style="fill: #ffffff; stroke: #ffffff; stroke-linejoin: miter"/>
   </g>
   <g id="patch_45">
    <path d="M 91.031775 214.554136 
L 110.426065 210.328079 
L 119.331075 211.259539 
L 128.577009 210.575866 
L 146.479018 214.85218 
L 128.746761 214.565003 
L 119.463778 215.244197 
L 110.414458 214.524049 
z
" clip-path="url(#p0ea9f65f6f)" style="fill: #ffffff; stroke: #ffffff; stroke-linejoin: miter"/>
   </g>
   <g id="patch_46">
    <path d="M 78.284167 123.541645 
C 79.126719 123.541645 79.934876 123.863294 80.53065 124.435753 
C 81.126424 125.008212 81.461174 125.784742 81.461174 126.594322 
C 81.461174 127.403901 81.126424 128.180431 80.53065 128.752891 
C 79.934876 129.32535 79.126719 129.646999 78.284167 129.646999 
C 77.441615 129.646999 76.633459 129.32535 76.037684 128.752891 
C 75.44191 128.180431 75.107161 127.403901 75.107161 126.594322 
C 75.107161 125.784742 75.44191 125.008212 76.037684 124.435753 
C 76.633459 123.863294 77.441615 123.541645 78.284167 123.541645 
z
" clip-path="url(#p0ea9f65f6f)" style="stroke: #000000; stroke-linejoin: miter"/>
   </g>
   <g id="patch_47">
    <path d="M 159.484589 123.544663 
C 160.334199 123.544663 161.149126 123.869007 161.749892 124.446262 
C 162.350657 125.023517 162.688211 125.806553 162.688211 126.622915 
C 162.688211 127.439277 162.350657 128.222312 161.749892 128.799567 
C 161.149126 129.376822 160.334199 129.701166 159.484589 129.701166 
C 158.634978 129.701166 157.820051 129.376822 157.219285 128.799567 
C 156.61852 128.222312 156.280966 127.439277 156.280966 126.622915 
C 156.280966 125.806553 156.61852 125.023517 157.219285 124.446262 
C 157.820051 123.869007 158.634978 123.544663 159.484589 123.544663 
z
" clip-path="url(#p0ea9f65f6f)" style="stroke: #000000; stroke-linejoin: miter"/>
   </g>
   <g id="Quiver_1">
    <path d="M 78.842167 126.594322 
L 78.563167 126.11108 
L 78.005167 126.11108 
L 77.726167 126.594322 
L 78.005167 127.077564 
L 78.563167 127.077564 
L 78.842167 126.594322 
L 78.563167 126.11108 
" clip-path="url(#p0ea9f65f6f)" style="fill: #ff0000"/>
    <path d="M 160.042589 126.622915 
L 159.763589 126.139672 
L 159.205589 126.139672 
L 158.926589 126.622915 
L 159.205589 127.106157 
L 159.763589 127.106157 
L 160.042589 126.622915 
L 159.763589 126.139672 
" clip-path="url(#p0ea9f65f6f)" style="fill: #ff0000"/>
   </g>
   <g id="line2d_1">
    <path d="M 25.16084 127.854888 
L 25.425829 151.892863 
L 28.367102 176.19783 
L 33.210696 199.902823 
L 41.625131 221.639684 
L 55.638418 240.375652 
L 74.154458 255.260557 
L 95.698705 265.766111 
L 119.085762 268.798896 
L 142.027212 265.431001 
L 162.134902 254.693499 
L 179.729881 239.583795 
L 192.662151 220.679688 
L 200.493292 198.78228 
L 205.140132 175.386629 
L 207.96745 151.831353 
L 208.305586 128.621939 
" clip-path="url(#p0ea9f65f6f)" style="fill: none; stroke: #000000; stroke-linecap: square"/>
   </g>
   <g id="line2d_2">
    <path d="M 61.394455 126.687128 
L 72.713916 122.790903 
L 84.116011 122.766048 
L 94.550304 128.183629 
L 83.854363 130.387235 
L 72.452378 130.433102 
L 61.394455 126.687128 
" clip-path="url(#p0ea9f65f6f)" style="fill: none; stroke: #000000; stroke-linecap: square"/>
   </g>
   <g id="line2d_3">
    <path d="M 142.853727 128.061662 
L 153.821502 122.597252 
L 164.969783 122.952948 
L 175.209307 127.052825 
L 165.175642 130.479655 
L 153.971427 130.461804 
L 142.853727 128.061662 
" clip-path="url(#p0ea9f65f6f)" style="fill: none; stroke: #000000; stroke-linecap: square"/>
   </g>
   <g id="line2d_4">
    <path d="M 45.309784 108.324672 
L 56.820149 99.34145 
L 72.239245 95.090052 
L 88.211289 95.689068 
L 103.481827 99.722875 
" clip-path="url(#p0ea9f65f6f)" style="fill: none; stroke: #000000; stroke-linecap: square"/>
   </g>
   <g id="line2d_5">
    <path d="M 135.827044 99.153081 
L 150.603366 95.38334 
L 165.826374 94.835643 
L 180.21164 98.562621 
L 190.667888 107.267729 
" clip-path="url(#p0ea9f65f6f)" style="fill: none; stroke: #000000; stroke-linecap: square"/>
   </g>
   <g id="line2d_6">
    <path d="M 86.427935 214.797153 
L 97.839191 205.554603 
L 110.609467 200.066342 
L 119.29107 202.431499 
L 128.319952 200.164657 
L 140.634442 206.083228 
L 151.027967 214.949714 
L 146.479018 214.85218 
L 128.577009 210.575866 
L 119.331075 211.259539 
L 110.426065 210.328079 
L 91.031775 214.554136 
L 86.427935 214.797153 
" clip-path="url(#p0ea9f65f6f)" style="fill: none; stroke: #000000; stroke-linecap: square"/>
   </g>
   <g id="line2d_7">
    <path d="M 86.427935 214.797153 
L 91.031775 214.554136 
L 110.414458 214.524049 
L 119.463778 215.244197 
L 128.746761 214.565003 
L 146.479018 214.85218 
L 151.027967 214.949714 
L 140.853469 222.844648 
L 129.572538 226.740792 
L 119.736402 227.573174 
L 110.073154 226.907489 
L 97.98356 222.764383 
L 86.427935 214.797153 
" clip-path="url(#p0ea9f65f6f)" style="fill: none; stroke: #000000; stroke-linecap: square"/>
   </g>
   <g id="line2d_8">
    <path d="M 119.633012 122.411767 
L 119.637091 136.942116 
L 119.819485 151.023871 
L 119.993922 165.461218 
" clip-path="url(#p0ea9f65f6f)" style="fill: none; stroke: #000000; stroke-linecap: square"/>
   </g>
   <g id="line2d_9">
    <path d="M 100.52338 181.048625 
L 109.53769 183.44535 
L 119.432922 185.165013 
L 129.042142 183.586935 
L 137.681221 181.269969 
" clip-path="url(#p0ea9f65f6f)" style="fill: none; stroke: #000000; stroke-linecap: square"/>
   </g>
   <g id="patch_48">
    <path d="M 7.2 301.037813 
L 7.2 23.837813 
" style="fill: none; stroke: #000000; stroke-width: 0.8; stroke-linejoin: miter; stroke-linecap: square"/>
   </g>
   <g id="patch_49">
    <path d="M 230.4 301.037813 
L 230.4 23.837813 
" style="fill: none; stroke: #000000; stroke-width: 0.8; stroke-linejoin: miter; stroke-linecap: square"/>
   </g>
   <g id="patch_50">
    <path d="M 7.2 301.037813 
L 230.4 301.037813 
" style="fill: none; stroke: #000000; stroke-width: 0.8; stroke-linejoin: miter; stroke-linecap: square"/>
   </g>
   <g id="patch_51">
    <path d="M 7.2 23.837812 
L 230.4 23.837812 
" style="fill: none; stroke: #000000; stroke-width: 0.8; stroke-linejoin: miter; stroke-linecap: square"/>
   </g>
   <g id="text_1">
    <!-- Neutral -->
    <g transform="translate(92.963437 17.837812) scale(0.14 -0.14)">
     <defs>
      <path id="DejaVuSans-4e" d="M 628 4666 
L 1478 4666 
L 3547 763 
L 3547 4666 
L 4159 4666 
L 4159 0 
L 3309 0 
L 1241 3903 
L 1241 0 
L 628 0 
L 628 4666 
z
" transform="scale(0.015625)"/>
      <path id="DejaVuSans-65" d="M 3597 1894 
L 3597 1613 
L 953 1613 
Q 991 1019 1311 708 
Q 1631 397 2203 397 
Q 2534 397 2845 478 
Q 3156 559 3463 722 
L 3463 178 
Q 3153 47 2828 -22 
Q 2503 -91 2169 -91 
Q 1331 -91 842 396 
Q 353 884 353 1716 
Q 353 2575 817 3079 
Q 1281 3584 2069 3584 
Q 2775 3584 3186 3129 
Q 3597 2675 3597 1894 
z
M 3022 2063 
Q 3016 2534 2758 2815 
Q 2500 3097 2075 3097 
Q 1594 3097 1305 2825 
Q 1016 2553 972 2059 
L 3022 2063 
z
" transform="scale(0.015625)"/>
      <path id="DejaVuSans-75" d="M 544 1381 
L 544 3500 
L 1119 3500 
L 1119 1403 
Q 1119 906 1312 657 
Q 1506 409 1894 409 
Q 2359 409 2629 706 
Q 2900 1003 2900 1516 
L 2900 3500 
L 3475 3500 
L 3475 0 
L 2900 0 
L 2900 538 
Q 2691 219 2414 64 
Q 2138 -91 1772 -91 
Q 1169 -91 856 284 
Q 544 659 544 1381 
z
M 1991 3584 
L 1991 3584 
z
" transform="scale(0.015625)"/>
      <path id="DejaVuSans-74" d="M 1172 4494 
L 1172 3500 
L 2356 3500 
L 2356 3053 
L 1172 3053 
L 1172 1153 
Q 1172 725 1289 603 
Q 1406 481 1766 481 
L 2356 481 
L 2356 0 
L 1766 0 
Q 1100 0 847 248 
Q 594 497 594 1153 
L 594 3053 
L 172 3053 
L 172 3500 
L 594 3500 
L 594 4494 
L 1172 4494 
z
" transform="scale(0.015625)"/>
      <path id="DejaVuSans-72" d="M 2631 2963 
Q 2534 3019 2420 3045 
Q 2306 3072 2169 3072 
Q 1681 3072 1420 2755 
Q 1159 2438 1159 1844 
L 1159 0 
L 581 0 
L 581 3500 
L 1159 3500 
L 1159 2956 
Q 1341 3275 1631 3429 
Q 1922 3584 2338 3584 
Q 2397 3584 2469 3576 
Q 2541 3569 2628 3553 
L 2631 2963 
z
" transform="scale(0.015625)"/>
      <path id="DejaVuSans-61" d="M 2194 1759 
Q 1497 1759 1228 1600 
Q 959 1441 959 1056 
Q 959 750 1161 570 
Q 1363 391 1709 391 
Q 2188 391 2477 730 
Q 2766 1069 2766 1631 
L 2766 1759 
L 2194 1759 
z
M 3341 1997 
L 3341 0 
L 2766 0 
L 2766 531 
Q 2569 213 2275 61 
Q 1981 -91 1556 -91 
Q 1019 -91 701 211 
Q 384 513 384 1019 
Q 384 1609 779 1909 
Q 1175 2209 1959 2209 
L 2766 2209 
L 2766 2266 
Q 2766 2663 2505 2880 
Q 2244 3097 1772 3097 
Q 1472 3097 1187 3025 
Q 903 2953 641 2809 
L 641 3341 
Q 956 3463 1253 3523 
Q 1550 3584 1831 3584 
Q 2591 3584 2966 3190 
Q 3341 2797 3341 1997 
z
" transform="scale(0.015625)"/>
      <path id="DejaVuSans-6c" d="M 603 4863 
L 1178 4863 
L 1178 0 
L 603 0 
L 603 4863 
z
" transform="scale(0.015625)"/>
     </defs>
     <use xlink:href="#DejaVuSans-4e"/>
     <use xlink:href="#DejaVuSans-65" x="74.804688"/>
     <use xlink:href="#DejaVuSans-75" x="136.328125"/>
     <use xlink:href="#DejaVuSans-74" x="199.707031"/>
     <use xlink:href="#DejaVuSans-72" x="238.916016"/>
     <use xlink:href="#DejaVuSans-61" x="280.029297"/>
     <use xlink:href="#DejaVuSans-6c" x="341.308594"/>
    </g>
   </g>
  </g>
 </g>
 <defs>
  <clipPath id="p0ea9f65f6f">
   <rect x="7.2" y="23.837812" width="223.2" height="277.2"/>
  </clipPath>
 </defs>
</svg>
