<?xml version="1.0" encoding="utf-8" standalone="no"?>
<!DOCTYPE svg PUBLIC "-//W3C//DTD SVG 1.1//EN"
  "http://www.w3.org/Graphics/SVG/1.1/DTD/svg11.dtd">
<svg xmlns:xlink="http://www.w3.org/1999/xlink" width="237.6pt" height="308.237813pt" viewBox="0 0 237.6 308.237813" xmlns="http://www.w3.org/2000/svg" version="1.1">
 <metadata>
  <rdf:RDF xmlns:dc="http://purl.org/dc/elements/1.1/" xmlns:cc="http://creativecommons.org/ns#" xmlns:rdf="http://www.w3.org/1999/02/22-rdf-syntax-ns#">
   <cc:Work>
    <dc:type rdf:resource="http://purl.org/dc/dcmitype/StillImage"/>
    <dc:date>2025-05-16T15:52:42.257441</dc:date>
    <dc:format>image/svg+xml</dc:format>
    <dc:creator>
     <cc:Agent>
      <dc:title>Matplotlib v3.9.2, https://matplotlib.org/</dc:title>
     </cc:Agent>
    </dc:creator>
   </cc:Work>
  </rdf:RDF>
 </metadata>
 <defs>
  <style type="text/css">*{stroke-linejoin: round; stroke-linecap: butt}</style>
 </defs>
 <g id="figure_1">
  <g id="patch_1">
   <path d="M 0 308.237813 
L 237.6 308.237813 
L 237.6 0 
L 0 0 
z
" style="fill: #ffffff"/>
  </g>
  <g id="axes_1">
   <g id="patch_2">
    <path d="M 7.2 301.037813 
L 230.4 301.037813 
L 230.4 23.837812 
L 7.2 23.837812 
z
" style="fill: #ffffff"/>
   </g>
   <g id="patch_3">
    <path d="M 83.672322 211.89186 
L 56.964196 201.339099 
L 56.964196 232.111667 
L 83.672322 211.89186 
z
" clip-path="url(#pc9ef6655d6)" style="fill: none"/>
   </g>
   <g id="patch_4">
    <path d="M 153.254969 212.003404 
L 177.794183 201.513057 
L 177.794183 232.111667 
L 153.254969 212.003404 
z
" clip-path="url(#pc9ef6655d6)" style="fill: none"/>
   </g>
   <g id="patch_5">
    <path d="M 29.576377 172.23249 
L 34.547335 196.226332 
L 43.080203 218.395556 
L 56.964196 237.819555 
L 74.950046 253.856501 
L 56.964196 187.59043 
z
" clip-path="url(#pc9ef6655d6)" style="fill: #cbdef1; fill-opacity: 0.333333; stroke: #cbdef1; stroke-opacity: 0.333333; stroke-linejoin: miter"/>
   </g>
   <g id="patch_6">
    <path d="M 203.437172 171.429207 
L 198.514963 195.090453 
L 190.601872 217.387819 
L 177.794183 236.991198 
L 160.874744 253.397747 
L 177.794183 187.59043 
z
" clip-path="url(#pc9ef6655d6)" style="fill: #cbdef1; fill-opacity: 0.333333; stroke: #cbdef1; stroke-opacity: 0.333333; stroke-linejoin: miter"/>
   </g>
   <g id="patch_7">
    <path d="M 29.576377 172.23249 
L 26.304492 147.79792 
L 25.453392 123.454439 
L 43.157091 109.096955 
L 60.594165 125.986777 
z
" clip-path="url(#pc9ef6655d6)" style="fill: #cbdef1; fill-opacity: 0.333333; stroke: #cbdef1; stroke-opacity: 0.333333; stroke-linejoin: miter"/>
   </g>
   <g id="patch_8">
    <path d="M 203.437172 171.429207 
L 206.580619 147.565559 
L 207.338286 123.941118 
L 192.799911 107.899404 
L 176.15624 126.571986 
z
" clip-path="url(#pc9ef6655d6)" style="fill: #cbdef1; fill-opacity: 0.333333; stroke: #cbdef1; stroke-opacity: 0.333333; stroke-linejoin: miter"/>
   </g>
   <g id="patch_9">
    <path d="M 119.836646 232.111667 
L 109.24618 231.028816 
L 95.650802 224.429547 
L 74.950046 253.856501 
L 95.891625 265.878527 
L 119.836646 232.111667 
z
" clip-path="url(#pc9ef6655d6)" style="fill: none"/>
   </g>
   <g id="patch_10">
    <path d="M 119.836646 232.111667 
L 130.688115 230.829981 
L 143.060909 224.294662 
L 160.874744 253.397747 
L 141.582271 265.584602 
L 119.836646 232.111667 
z
" clip-path="url(#pc9ef6655d6)" style="fill: none"/>
   </g>
   <g id="patch_11">
    <path d="M 83.672322 211.89186 
L 95.891625 265.878527 
L 74.950046 253.856501 
L 83.672322 211.89186 
z
" clip-path="url(#pc9ef6655d6)" style="fill: none"/>
   </g>
   <g id="patch_12">
    <path d="M 153.254969 212.003404 
L 141.582271 265.584602 
L 160.874744 253.397747 
L 153.254969 212.003404 
z
" clip-path="url(#pc9ef6655d6)" style="fill: none"/>
   </g>
   <g id="patch_13">
    <path d="M 109.24618 231.028816 
L 95.891625 265.878527 
L 118.974683 269.545165 
z
" clip-path="url(#pc9ef6655d6)" style="fill: #cbdef1; fill-opacity: 0.333333; stroke: #cbdef1; stroke-opacity: 0.333333; stroke-linejoin: miter"/>
   </g>
   <g id="patch_14">
    <path d="M 130.688115 230.829981 
L 141.582271 265.584602 
L 118.974683 269.545165 
z
" clip-path="url(#pc9ef6655d6)" style="fill: #cbdef1; fill-opacity: 0.333333; stroke: #cbdef1; stroke-opacity: 0.333333; stroke-linejoin: miter"/>
   </g>
   <g id="patch_15">
    <path d="M 43.080203 218.395556 
L 56.964196 237.819555 
L 83.672322 211.89186 
L 43.080203 218.395556 
z
" clip-path="url(#pc9ef6655d6)" style="fill: none"/>
   </g>
   <g id="patch_16">
    <path d="M 177.794183 236.991198 
L 190.601872 217.387819 
L 153.254969 212.003404 
L 177.794183 236.991198 
z
" clip-path="url(#pc9ef6655d6)" style="fill: none"/>
   </g>
   <g id="patch_17">
    <path d="M 119.76012 123.480167 
L 94.838989 128.685599 
L 84.241994 121.413655 
L 72.042252 120.979321 
L 60.594165 125.986777 
L 43.157091 109.096955 
L 54.693269 99.253831 
L 70.671861 95.649283 
L 87.310646 97.313018 
L 102.576514 102.421857 
L 119.76012 123.480167 
z
" clip-path="url(#pc9ef6655d6)" style="fill: none"/>
   </g>
   <g id="patch_18">
    <path d="M 119.76012 123.480167 
L 94.838989 128.685599 
L 102.576514 102.421857 
z
" clip-path="url(#pc9ef6655d6)" style="fill: #cbdef1; fill-opacity: 0.333333; stroke: #cbdef1; stroke-opacity: 0.333333; stroke-linejoin: miter"/>
   </g>
   <g id="patch_19">
    <path d="M 119.76012 123.480167 
L 136.173099 101.544604 
L 151.417952 96.587249 
L 167.257941 94.970565 
L 182.304045 98.253733 
L 192.799911 107.899404 
L 176.15624 126.571986 
L 165.727884 121.223921 
L 153.656698 121.2593 
L 142.557593 128.725856 
L 119.76012 123.480167 
z
" clip-path="url(#pc9ef6655d6)" style="fill: none"/>
   </g>
   <g id="patch_20">
    <path d="M 119.76012 123.480167 
L 142.557593 128.725856 
L 136.173099 101.544604 
z
" clip-path="url(#pc9ef6655d6)" style="fill: #cbdef1; fill-opacity: 0.333333; stroke: #cbdef1; stroke-opacity: 0.333333; stroke-linejoin: miter"/>
   </g>
   <g id="patch_21">
    <path d="M 119.910261 139.391546 
L 151.417952 96.587249 
L 167.257941 94.970565 
L 119.910261 139.391546 
z
" clip-path="url(#pc9ef6655d6)" style="fill: none"/>
   </g>
   <g id="patch_22">
    <path d="M 88.005637 128.685599 
L 94.838989 141.81747 
L 83.764679 164.800505 
L 71.573207 164.462087 
L 60.594165 159.866001 
L 72.347184 142.926389 
L 67.427518 125.986777 
L 88.005637 128.685599 
z
" clip-path="url(#pc9ef6655d6)" style="fill: none"/>
   </g>
   <g id="patch_23">
    <path d="M 148.976817 128.725856 
L 154.298198 164.543809 
L 166.246174 164.27457 
L 176.15624 160.042176 
L 164.545119 143.307081 
L 169.737016 126.571986 
L 148.976817 128.725856 
z
" clip-path="url(#pc9ef6655d6)" style="fill: none"/>
   </g>
   <g id="patch_24">
    <path d="M 71.573207 130.582864 
L 83.764679 130.921281 
L 96.528261 205.091904 
L 71.573207 130.582864 
z
" clip-path="url(#pc9ef6655d6)" style="fill: none"/>
   </g>
   <g id="patch_25">
    <path d="M 154.298198 131.073618 
L 166.246174 130.80438 
L 142.133922 205.51601 
L 154.298198 131.073618 
z
" clip-path="url(#pc9ef6655d6)" style="fill: none"/>
   </g>
   <g id="patch_26">
    <path d="M 94.838989 128.685599 
L 96.528261 205.091904 
L 99.848476 181.886974 
L 94.838989 128.685599 
z
" clip-path="url(#pc9ef6655d6)" style="fill: none"/>
   </g>
   <g id="patch_27">
    <path d="M 138.851759 182.187295 
L 142.557593 128.725856 
L 142.133922 205.51601 
L 138.851759 182.187295 
z
" clip-path="url(#pc9ef6655d6)" style="fill: none"/>
   </g>
   <g id="patch_28">
    <path d="M 83.672322 211.89186 
L 34.547335 196.226332 
L 29.576377 172.23249 
z
" clip-path="url(#pc9ef6655d6)" style="fill: #3787c0; stroke: #3787c0; stroke-linejoin: miter"/>
   </g>
   <g id="patch_29">
    <path d="M 153.254969 212.003404 
L 198.514963 195.090453 
L 203.437172 171.429207 
z
" clip-path="url(#pc9ef6655d6)" style="fill: #3787c0; stroke: #3787c0; stroke-linejoin: miter"/>
   </g>
   <g id="patch_30">
    <path d="M 65.149734 119.420842 
L 60.594165 112.854907 
L 72.042252 107.84745 
L 84.241994 108.281784 
L 94.838989 115.553728 
L 90.283421 122.119664 
L 88.005637 128.685599 
L 90.283421 135.251534 
L 94.838989 141.81747 
L 83.764679 144.053152 
L 71.573207 143.714735 
L 60.594165 139.118648 
L 65.149734 132.552713 
L 67.427518 125.986777 
L 65.149734 119.420842 
z
" clip-path="url(#pc9ef6655d6)" style="fill: none"/>
   </g>
   <g id="patch_31">
    <path d="M 146.837076 122.557844 
L 142.557593 116.389831 
L 153.656698 108.923274 
L 165.727884 108.887895 
L 176.15624 114.23596 
L 171.876758 120.403973 
L 169.737016 126.571986 
L 171.876758 132.739999 
L 176.15624 138.908011 
L 166.246174 143.140405 
L 154.298198 143.409644 
L 142.557593 141.061882 
L 146.837076 134.893869 
L 148.976817 128.725856 
L 146.837076 122.557844 
z
" clip-path="url(#pc9ef6655d6)" style="fill: none"/>
   </g>
   <g id="patch_32">
    <path d="M 62.87195 123.360403 
L 60.594165 119.420842 
L 72.042252 114.413386 
L 84.241994 114.847719 
L 94.838989 122.119664 
L 92.561205 126.059225 
L 92.105648 128.685599 
L 92.561205 131.311973 
L 94.838989 135.251534 
L 83.764679 137.487217 
L 71.573207 137.148799 
L 60.594165 132.552713 
L 62.87195 128.613151 
L 63.327506 125.986777 
L 62.87195 123.360403 
z
" clip-path="url(#pc9ef6655d6)" style="fill: none"/>
   </g>
   <g id="patch_33">
    <path d="M 144.697334 126.258651 
L 142.557593 122.557844 
L 153.656698 115.091287 
L 165.727884 115.055908 
L 176.15624 120.403973 
L 174.016499 124.104781 
L 173.588551 126.571986 
L 174.016499 129.039191 
L 176.15624 132.739999 
L 166.246174 136.972393 
L 154.298198 137.241631 
L 142.557593 134.893869 
L 144.697334 131.193062 
L 145.125283 128.725856 
L 144.697334 126.258651 
z
" clip-path="url(#pc9ef6655d6)" style="fill: none"/>
   </g>
   <g id="patch_34">
    <path d="M 83.672322 211.89186 
L 95.650802 224.429547 
L 109.24618 231.028816 
L 119.836646 232.111667 
L 130.688115 230.829981 
L 143.060909 224.294662 
L 153.254969 212.003404 
L 143.060909 243.011411 
L 130.688115 249.546731 
L 119.836646 250.828416 
L 109.24618 249.745565 
L 95.650802 243.146296 
L 83.672322 211.89186 
z
" clip-path="url(#pc9ef6655d6)" style="fill: none"/>
   </g>
   <g id="patch_35">
    <path d="M 83.672322 211.89186 
L 96.528261 205.091904 
L 110.4277 201.339099 
L 119.566989 203.848312 
L 129.19241 201.513057 
L 142.133922 205.51601 
L 153.254969 212.003404 
L 119.795167 187.59043 
L 83.672322 211.89186 
z
" clip-path="url(#pc9ef6655d6)" style="fill: none"/>
   </g>
   <g id="patch_36">
    <path d="M 119.910261 139.391546 
L 70.671861 95.649283 
L 87.310646 97.313018 
L 119.910261 139.391546 
z
" clip-path="url(#pc9ef6655d6)" style="fill: none"/>
   </g>
   <g id="patch_37">
    <path d="M 62.87195 123.360403 
L 60.594165 119.420842 
L 72.042252 114.413386 
L 84.241994 114.847719 
L 94.838989 122.119664 
L 92.561205 126.059225 
L 92.105648 128.685599 
L 92.561205 131.311973 
L 94.838989 135.251534 
L 83.764679 137.487217 
L 71.573207 137.148799 
L 60.594165 132.552713 
L 62.87195 128.613151 
L 63.327506 125.986777 
L 62.87195 123.360403 
z
" clip-path="url(#pc9ef6655d6)" style="fill: none"/>
   </g>
   <g id="patch_38">
    <path d="M 144.697334 126.258651 
L 142.557593 122.557844 
L 153.656698 115.091287 
L 165.727884 115.055908 
L 176.15624 120.403973 
L 174.016499 124.104781 
L 173.588551 126.571986 
L 174.016499 129.039191 
L 176.15624 132.739999 
L 166.246174 136.972393 
L 154.298198 137.241631 
L 142.557593 134.893869 
L 144.697334 131.193062 
L 145.125283 128.725856 
L 144.697334 126.258651 
z
" clip-path="url(#pc9ef6655d6)" style="fill: none"/>
   </g>
   <g id="patch_39">
    <path d="M 29.576377 172.23249 
L 34.547335 196.226332 
L 43.080203 218.395556 
L 56.964196 237.819555 
L 74.950046 253.856501 
L 56.964196 187.59043 
z
" clip-path="url(#pc9ef6655d6)" style="fill: #cbdef1; fill-opacity: 0.333333; stroke: #cbdef1; stroke-opacity: 0.333333; stroke-linejoin: miter"/>
   </g>
   <g id="patch_40">
    <path d="M 203.437172 171.429207 
L 198.514963 195.090453 
L 190.601872 217.387819 
L 177.794183 236.991198 
L 160.874744 253.397747 
L 177.794183 187.59043 
z
" clip-path="url(#pc9ef6655d6)" style="fill: #cbdef1; fill-opacity: 0.333333; stroke: #cbdef1; stroke-opacity: 0.333333; stroke-linejoin: miter"/>
   </g>
   <g id="patch_41">
    <path d="M 29.576377 172.23249 
L 26.304492 147.79792 
L 25.453392 123.454439 
L 43.157091 109.096955 
L 60.594165 125.986777 
z
" clip-path="url(#pc9ef6655d6)" style="fill: #cbdef1; fill-opacity: 0.333333; stroke: #cbdef1; stroke-opacity: 0.333333; stroke-linejoin: miter"/>
   </g>
   <g id="patch_42">
    <path d="M 203.437172 171.429207 
L 206.580619 147.565559 
L 207.338286 123.941118 
L 192.799911 107.899404 
L 176.15624 126.571986 
z
" clip-path="url(#pc9ef6655d6)" style="fill: #cbdef1; fill-opacity: 0.333333; stroke: #cbdef1; stroke-opacity: 0.333333; stroke-linejoin: miter"/>
   </g>
   <g id="patch_43">
    <path d="M 60.594165 125.986777 
L 72.042252 120.979321 
L 84.241994 121.413655 
L 94.838989 128.685599 
L 83.764679 130.921281 
L 71.573207 130.582864 
z
" clip-path="url(#pc9ef6655d6)" style="fill: #ffffff; stroke: #ffffff; stroke-linejoin: miter"/>
   </g>
   <g id="patch_44">
    <path d="M 142.557593 128.725856 
L 153.656698 121.2593 
L 165.727884 121.223921 
L 176.15624 126.571986 
L 166.246174 130.80438 
L 154.298198 131.073618 
z
" clip-path="url(#pc9ef6655d6)" style="fill: #ffffff; stroke: #ffffff; stroke-linejoin: miter"/>
   </g>
   <g id="patch_45">
    <path d="M 88.195685 212.260018 
L 110.134692 210.473768 
L 119.606927 211.73683 
L 129.441268 210.609919 
L 148.848368 212.4998 
L 129.815767 218.410223 
L 119.611563 219.593116 
L 109.742367 218.563966 
z
" clip-path="url(#pc9ef6655d6)" style="fill: #ffffff; stroke: #ffffff; stroke-linejoin: miter"/>
   </g>
   <g id="patch_46">
    <path d="M 77.905533 122.152046 
C 78.960486 122.152046 79.972373 122.554781 80.718337 123.271553 
C 81.464301 123.988324 81.883439 124.960612 81.883439 125.97428 
C 81.883439 126.987949 81.464301 127.960236 80.718337 128.677008 
C 79.972373 129.393779 78.960486 129.796514 77.905533 129.796514 
C 76.85058 129.796514 75.838693 129.393779 75.092729 128.677008 
C 74.346764 127.960236 73.927627 126.987949 73.927627 125.97428 
C 73.927627 124.960612 74.346764 123.988324 75.092729 123.271553 
C 75.838693 122.554781 76.85058 122.152046 77.905533 122.152046 
z
" clip-path="url(#pc9ef6655d6)" style="stroke: #000000; stroke-linejoin: miter"/>
   </g>
   <g id="patch_47">
    <path d="M 159.982238 122.211349 
C 161.052847 122.211349 162.07975 122.62006 162.836784 123.347469 
C 163.593819 124.074878 164.019176 125.061594 164.019176 126.090305 
C 164.019176 127.119016 163.593819 128.105732 162.836784 128.83314 
C 162.07975 129.560549 161.052847 129.96926 159.982238 129.96926 
C 158.91163 129.96926 157.884727 129.560549 157.127693 128.83314 
C 156.370658 128.105732 155.945301 127.119016 155.945301 126.090305 
C 155.945301 125.061594 156.370658 124.074878 157.127693 123.347469 
C 157.884727 122.62006 158.91163 122.211349 159.982238 122.211349 
z
" clip-path="url(#pc9ef6655d6)" style="stroke: #000000; stroke-linejoin: miter"/>
   </g>
   <g id="Quiver_1">
    <path d="M 78.463533 125.97428 
L 78.184533 125.491038 
L 77.626533 125.491038 
L 77.347533 125.97428 
L 77.626533 126.457522 
L 78.184533 126.457522 
L 78.463533 125.97428 
L 78.184533 125.491038 
" clip-path="url(#pc9ef6655d6)" style="fill: #ff0000"/>
    <path d="M 160.540238 126.090305 
L 160.261238 125.607063 
L 159.703238 125.607063 
L 159.424238 126.090305 
L 159.703238 126.573547 
L 160.261238 126.573547 
L 160.540238 126.090305 
L 160.261238 125.607063 
" clip-path="url(#pc9ef6655d6)" style="fill: #ff0000"/>
   </g>
   <g id="line2d_1">
    <path d="M 25.453392 123.454439 
L 26.304492 147.79792 
L 29.576377 172.23249 
L 34.547335 196.226332 
L 43.080203 218.395556 
L 56.964196 237.819555 
L 74.950046 253.856501 
L 95.891625 265.878527 
L 118.974683 269.545165 
L 141.582271 265.584602 
L 160.874744 253.397747 
L 177.794183 236.991198 
L 190.601872 217.387819 
L 198.514963 195.090453 
L 203.437172 171.429207 
L 206.580619 147.565559 
L 207.338286 123.941118 
" clip-path="url(#pc9ef6655d6)" style="fill: none; stroke: #000000; stroke-linecap: square"/>
   </g>
   <g id="line2d_2">
    <path d="M 60.594165 125.986777 
L 72.042252 120.979321 
L 84.241994 121.413655 
L 94.838989 128.685599 
L 83.764679 130.921281 
L 71.573207 130.582864 
L 60.594165 125.986777 
" clip-path="url(#pc9ef6655d6)" style="fill: none; stroke: #000000; stroke-linecap: square"/>
   </g>
   <g id="line2d_3">
    <path d="M 142.557593 128.725856 
L 153.656698 121.2593 
L 165.727884 121.223921 
L 176.15624 126.571986 
L 166.246174 130.80438 
L 154.298198 131.073618 
L 142.557593 128.725856 
" clip-path="url(#pc9ef6655d6)" style="fill: none; stroke: #000000; stroke-linecap: square"/>
   </g>
   <g id="line2d_4">
    <path d="M 43.157091 109.096955 
L 54.693269 99.253831 
L 70.671861 95.649283 
L 87.310646 97.313018 
L 102.576514 102.421857 
" clip-path="url(#pc9ef6655d6)" style="fill: none; stroke: #000000; stroke-linecap: square"/>
   </g>
   <g id="line2d_5">
    <path d="M 136.173099 101.544604 
L 151.417952 96.587249 
L 167.257941 94.970565 
L 182.304045 98.253733 
L 192.799911 107.899404 
" clip-path="url(#pc9ef6655d6)" style="fill: none; stroke: #000000; stroke-linecap: square"/>
   </g>
   <g id="line2d_6">
    <path d="M 83.672322 211.89186 
L 96.528261 205.091904 
L 110.4277 201.339099 
L 119.566989 203.848312 
L 129.19241 201.513057 
L 142.133922 205.51601 
L 153.254969 212.003404 
L 148.848368 212.4998 
L 129.441268 210.609919 
L 119.606927 211.73683 
L 110.134692 210.473768 
L 88.195685 212.260018 
L 83.672322 211.89186 
" clip-path="url(#pc9ef6655d6)" style="fill: none; stroke: #000000; stroke-linecap: square"/>
   </g>
   <g id="line2d_7">
    <path d="M 83.672322 211.89186 
L 88.195685 212.260018 
L 109.742367 218.563966 
L 119.611563 219.593116 
L 129.815767 218.410223 
L 148.848368 212.4998 
L 153.254969 212.003404 
L 143.060909 224.294662 
L 130.688115 230.829981 
L 119.836646 232.111667 
L 109.24618 231.028816 
L 95.650802 224.429547 
L 83.672322 211.89186 
" clip-path="url(#pc9ef6655d6)" style="fill: none; stroke: #000000; stroke-linecap: square"/>
   </g>
   <g id="line2d_8">
    <path d="M 119.76012 123.480167 
L 119.910261 139.391546 
L 120.197492 154.794894 
L 120.447466 170.260757 
" clip-path="url(#pc9ef6655d6)" style="fill: none; stroke: #000000; stroke-linecap: square"/>
   </g>
   <g id="line2d_9">
    <path d="M 99.848476 181.886974 
L 109.348576 185.248337 
L 119.795167 187.59043 
L 129.906882 185.360198 
L 138.851759 182.187295 
" clip-path="url(#pc9ef6655d6)" style="fill: none; stroke: #000000; stroke-linecap: square"/>
   </g>
   <g id="patch_48">
    <path d="M 7.2 301.037813 
L 7.2 23.837813 
" style="fill: none; stroke: #000000; stroke-width: 0.8; stroke-linejoin: miter; stroke-linecap: square"/>
   </g>
   <g id="patch_49">
    <path d="M 230.4 301.037813 
L 230.4 23.837813 
" style="fill: none; stroke: #000000; stroke-width: 0.8; stroke-linejoin: miter; stroke-linecap: square"/>
   </g>
   <g id="patch_50">
    <path d="M 7.2 301.037813 
L 230.4 301.037813 
" style="fill: none; stroke: #000000; stroke-width: 0.8; stroke-linejoin: miter; stroke-linecap: square"/>
   </g>
   <g id="patch_51">
    <path d="M 7.2 23.837812 
L 230.4 23.837812 
" style="fill: none; stroke: #000000; stroke-width: 0.8; stroke-linejoin: miter; stroke-linecap: square"/>
   </g>
   <g id="text_1">
    <!-- Smiling -->
    <g transform="translate(92.823437 17.837812) scale(0.14 -0.14)">
     <defs>
      <path id="DejaVuSans-53" d="M 3425 4513 
L 3425 3897 
Q 3066 4069 2747 4153 
Q 2428 4238 2131 4238 
Q 1616 4238 1336 4038 
Q 1056 3838 1056 3469 
Q 1056 3159 1242 3001 
Q 1428 2844 1947 2747 
L 2328 2669 
Q 3034 2534 3370 2195 
Q 3706 1856 3706 1288 
Q 3706 609 3251 259 
Q 2797 -91 1919 -91 
Q 1588 -91 1214 -16 
Q 841 59 441 206 
L 441 856 
Q 825 641 1194 531 
Q 1563 422 1919 422 
Q 2459 422 2753 634 
Q 3047 847 3047 1241 
Q 3047 1584 2836 1778 
Q 2625 1972 2144 2069 
L 1759 2144 
Q 1053 2284 737 2584 
Q 422 2884 422 3419 
Q 422 4038 858 4394 
Q 1294 4750 2059 4750 
Q 2388 4750 2728 4690 
Q 3069 4631 3425 4513 
z
" transform="scale(0.015625)"/>
      <path id="DejaVuSans-6d" d="M 3328 2828 
Q 3544 3216 3844 3400 
Q 4144 3584 4550 3584 
Q 5097 3584 5394 3201 
Q 5691 2819 5691 2113 
L 5691 0 
L 5113 0 
L 5113 2094 
Q 5113 2597 4934 2840 
Q 4756 3084 4391 3084 
Q 3944 3084 3684 2787 
Q 3425 2491 3425 1978 
L 3425 0 
L 2847 0 
L 2847 2094 
Q 2847 2600 2669 2842 
Q 2491 3084 2119 3084 
Q 1678 3084 1418 2786 
Q 1159 2488 1159 1978 
L 1159 0 
L 581 0 
L 581 3500 
L 1159 3500 
L 1159 2956 
Q 1356 3278 1631 3431 
Q 1906 3584 2284 3584 
Q 2666 3584 2933 3390 
Q 3200 3197 3328 2828 
z
" transform="scale(0.015625)"/>
      <path id="DejaVuSans-69" d="M 603 3500 
L 1178 3500 
L 1178 0 
L 603 0 
L 603 3500 
z
M 603 4863 
L 1178 4863 
L 1178 4134 
L 603 4134 
L 603 4863 
z
" transform="scale(0.015625)"/>
      <path id="DejaVuSans-6c" d="M 603 4863 
L 1178 4863 
L 1178 0 
L 603 0 
L 603 4863 
z
" transform="scale(0.015625)"/>
      <path id="DejaVuSans-6e" d="M 3513 2113 
L 3513 0 
L 2938 0 
L 2938 2094 
Q 2938 2591 2744 2837 
Q 2550 3084 2163 3084 
Q 1697 3084 1428 2787 
Q 1159 2491 1159 1978 
L 1159 0 
L 581 0 
L 581 3500 
L 1159 3500 
L 1159 2956 
Q 1366 3272 1645 3428 
Q 1925 3584 2291 3584 
Q 2894 3584 3203 3211 
Q 3513 2838 3513 2113 
z
" transform="scale(0.015625)"/>
      <path id="DejaVuSans-67" d="M 2906 1791 
Q 2906 2416 2648 2759 
Q 2391 3103 1925 3103 
Q 1463 3103 1205 2759 
Q 947 2416 947 1791 
Q 947 1169 1205 825 
Q 1463 481 1925 481 
Q 2391 481 2648 825 
Q 2906 1169 2906 1791 
z
M 3481 434 
Q 3481 -459 3084 -895 
Q 2688 -1331 1869 -1331 
Q 1566 -1331 1297 -1286 
Q 1028 -1241 775 -1147 
L 775 -588 
Q 1028 -725 1275 -790 
Q 1522 -856 1778 -856 
Q 2344 -856 2625 -561 
Q 2906 -266 2906 331 
L 2906 616 
Q 2728 306 2450 153 
Q 2172 0 1784 0 
Q 1141 0 747 490 
Q 353 981 353 1791 
Q 353 2603 747 3093 
Q 1141 3584 1784 3584 
Q 2172 3584 2450 3431 
Q 2728 3278 2906 2969 
L 2906 3500 
L 3481 3500 
L 3481 434 
z
" transform="scale(0.015625)"/>
     </defs>
     <use xlink:href="#DejaVuSans-53"/>
     <use xlink:href="#DejaVuSans-6d" x="63.476562"/>
     <use xlink:href="#DejaVuSans-69" x="160.888672"/>
     <use xlink:href="#DejaVuSans-6c" x="188.671875"/>
     <use xlink:href="#DejaVuSans-69" x="216.455078"/>
     <use xlink:href="#DejaVuSans-6e" x="244.238281"/>
     <use xlink:href="#DejaVuSans-67" x="307.617188"/>
    </g>
   </g>
  </g>
 </g>
 <defs>
  <clipPath id="pc9ef6655d6">
   <rect x="7.2" y="23.837812" width="223.2" height="277.2"/>
  </clipPath>
 </defs>
</svg>
