<?xml version="1.0" encoding="utf-8" standalone="no"?>
<!DOCTYPE svg PUBLIC "-//W3C//DTD SVG 1.1//EN"
  "http://www.w3.org/Graphics/SVG/1.1/DTD/svg11.dtd">
<svg xmlns:xlink="http://www.w3.org/1999/xlink" width="237.6pt" height="308.237813pt" viewBox="0 0 237.6 308.237813" xmlns="http://www.w3.org/2000/svg" version="1.1">
 <metadata>
  <rdf:RDF xmlns:dc="http://purl.org/dc/elements/1.1/" xmlns:cc="http://creativecommons.org/ns#" xmlns:rdf="http://www.w3.org/1999/02/22-rdf-syntax-ns#">
   <cc:Work>
    <dc:type rdf:resource="http://purl.org/dc/dcmitype/StillImage"/>
    <dc:date>2025-05-16T15:43:23.646436</dc:date>
    <dc:format>image/svg+xml</dc:format>
    <dc:creator>
     <cc:Agent>
      <dc:title>Matplotlib v3.9.2, https://matplotlib.org/</dc:title>
     </cc:Agent>
    </dc:creator>
   </cc:Work>
  </rdf:RDF>
 </metadata>
 <defs>
  <style type="text/css">*{stroke-linejoin: round; stroke-linecap: butt}</style>
 </defs>
 <g id="figure_1">
  <g id="patch_1">
   <path d="M 0 308.237813 
L 237.6 308.237813 
L 237.6 0 
L 0 0 
z
" style="fill: #ffffff"/>
  </g>
  <g id="axes_1">
   <g id="patch_2">
    <path d="M 7.2 301.037813 
L 230.4 301.037813 
L 230.4 23.837812 
L 7.2 23.837812 
z
" style="fill: #ffffff"/>
   </g>
   <g id="patch_3">
    <path d="M 87.711794 216.608953 
L 53.280611 200.270138 
L 53.280611 225.499303 
L 87.711794 216.608953 
z
" clip-path="url(#p85af73594e)" style="fill: none"/>
   </g>
   <g id="patch_4">
    <path d="M 149.902486 217.276057 
L 180.939451 200.631698 
L 180.939451 225.499303 
L 149.902486 217.276057 
z
" clip-path="url(#p85af73594e)" style="fill: none"/>
   </g>
   <g id="patch_5">
    <path d="M 26.789201 177.991712 
L 31.474419 201.082092 
L 39.440684 222.447582 
L 53.280611 240.703799 
L 72.239796 255.005749 
L 53.280611 183.381544 
L 26.789201 177.991712 
z
" clip-path="url(#p85af73594e)" style="fill: none"/>
   </g>
   <g id="patch_6">
    <path d="M 203.785241 176.740199 
L 199.393788 199.049918 
L 192.641769 220.40272 
L 180.939451 239.167567 
L 163.598081 253.926393 
L 180.939451 183.381544 
L 203.785241 176.740199 
z
" clip-path="url(#p85af73594e)" style="fill: none"/>
   </g>
   <g id="patch_7">
    <path d="M 26.789201 177.991712 
L 23.525216 154.396977 
L 22.792425 131.03061 
L 43.221369 107.746554 
L 60.961917 127.079357 
L 26.789201 177.991712 
z
" clip-path="url(#p85af73594e)" style="fill: none"/>
   </g>
   <g id="patch_8">
    <path d="M 203.785241 176.740199 
L 206.695173 154.257102 
L 207.252577 132.084905 
L 192.176233 106.947532 
L 175.690912 128.382968 
L 203.785241 176.740199 
z
" clip-path="url(#p85af73594e)" style="fill: none"/>
   </g>
   <g id="patch_9">
    <path d="M 120.232054 225.499303 
L 111.312778 225.136502 
L 99.423618 222.494006 
L 72.239796 255.005749 
L 94.960726 264.382573 
z
" clip-path="url(#p85af73594e)" style="fill: #3787c0; stroke: #3787c0; stroke-linejoin: miter"/>
   </g>
   <g id="patch_10">
    <path d="M 120.232054 225.499303 
L 129.34563 225.043713 
L 140.004948 222.875371 
L 163.598081 253.926393 
L 143.027917 263.88065 
z
" clip-path="url(#p85af73594e)" style="fill: #3787c0; stroke: #3787c0; stroke-linejoin: miter"/>
   </g>
   <g id="patch_11">
    <path d="M 87.711794 216.608953 
L 94.960726 264.382573 
L 72.239796 255.005749 
L 87.711794 216.608953 
z
" clip-path="url(#p85af73594e)" style="fill: none"/>
   </g>
   <g id="patch_12">
    <path d="M 149.902486 217.276057 
L 143.027917 263.88065 
L 163.598081 253.926393 
L 149.902486 217.276057 
z
" clip-path="url(#p85af73594e)" style="fill: none"/>
   </g>
   <g id="patch_13">
    <path d="M 111.312778 225.136502 
L 94.960726 264.382573 
L 119.280866 266.955042 
z
" clip-path="url(#p85af73594e)" style="fill: #3787c0; stroke: #3787c0; stroke-linejoin: miter"/>
   </g>
   <g id="patch_14">
    <path d="M 129.34563 225.043713 
L 143.027917 263.88065 
L 119.280866 266.955042 
z
" clip-path="url(#p85af73594e)" style="fill: #3787c0; stroke: #3787c0; stroke-linejoin: miter"/>
   </g>
   <g id="patch_15">
    <path d="M 39.440684 222.447582 
L 53.280611 240.703799 
L 87.711794 216.608953 
z
" clip-path="url(#p85af73594e)" style="fill: #3787c0; stroke: #3787c0; stroke-linejoin: miter"/>
   </g>
   <g id="patch_16">
    <path d="M 180.939451 239.167567 
L 192.641769 220.40272 
L 149.902486 217.276057 
z
" clip-path="url(#p85af73594e)" style="fill: #3787c0; stroke: #3787c0; stroke-linejoin: miter"/>
   </g>
   <g id="patch_17">
    <path d="M 120.217477 122.673327 
L 95.049308 129.071139 
L 84.257209 122.417261 
L 72.110424 122.231826 
L 60.961917 127.079357 
L 43.221369 107.746554 
L 54.541725 97.628139 
L 70.644956 92.953344 
L 87.490484 93.86243 
L 103.29273 98.88635 
z
" clip-path="url(#p85af73594e)" style="fill: #3787c0; stroke: #3787c0; stroke-linejoin: miter"/>
   </g>
   <g id="patch_18">
    <path d="M 120.217477 122.673327 
L 95.049308 129.071139 
L 103.29273 98.88635 
z
" clip-path="url(#p85af73594e)" style="fill: #3787c0; stroke: #3787c0; stroke-linejoin: miter"/>
   </g>
   <g id="patch_19">
    <path d="M 120.217477 122.673327 
L 137.407813 98.338503 
L 152.181214 93.951619 
L 167.80917 93.178939 
L 182.384914 97.28922 
L 192.176233 106.947532 
L 175.690912 128.382968 
L 165.751721 123.011578 
L 153.758113 122.819683 
L 142.673921 129.389317 
z
" clip-path="url(#p85af73594e)" style="fill: #3787c0; stroke: #3787c0; stroke-linejoin: miter"/>
   </g>
   <g id="patch_20">
    <path d="M 120.217477 122.673327 
L 142.673921 129.389317 
L 137.407813 98.338503 
z
" clip-path="url(#p85af73594e)" style="fill: #3787c0; stroke: #3787c0; stroke-linejoin: miter"/>
   </g>
   <g id="patch_21">
    <path d="M 120.344261 136.43759 
L 152.181214 93.951619 
L 167.80917 93.178939 
z
" clip-path="url(#p85af73594e)" style="fill: #3787c0; stroke: #3787c0; stroke-linejoin: miter"/>
   </g>
   <g id="patch_22">
    <path d="M 87.19577 129.071139 
L 95.049308 144.163533 
L 83.920023 168.748096 
L 71.846091 168.614955 
L 60.961917 164.128991 
L 73.81478 145.604174 
L 68.815456 127.079357 
L 87.19577 129.071139 
z
" clip-path="url(#p85af73594e)" style="fill: none"/>
   </g>
   <g id="patch_23">
    <path d="M 150.184872 129.389317 
L 154.309327 168.187153 
L 166.12968 168.194387 
L 175.690912 164.202049 
L 163.264938 146.292508 
L 168.179961 128.382968 
L 150.184872 129.389317 
z
" clip-path="url(#p85af73594e)" style="fill: none"/>
   </g>
   <g id="patch_24">
    <path d="M 71.846091 131.565321 
L 83.920023 131.698462 
L 98.971236 206.352329 
L 71.846091 131.565321 
z
" clip-path="url(#p85af73594e)" style="fill: none"/>
   </g>
   <g id="patch_25">
    <path d="M 154.309327 132.368073 
L 166.12968 132.375306 
L 140.212692 207.279747 
L 154.309327 132.368073 
z
" clip-path="url(#p85af73594e)" style="fill: none"/>
   </g>
   <g id="patch_26">
    <path d="M 95.049308 129.071139 
L 98.971236 206.352329 
L 101.468807 179.810284 
L 95.049308 129.071139 
z
" clip-path="url(#p85af73594e)" style="fill: none"/>
   </g>
   <g id="patch_27">
    <path d="M 137.577063 180.343371 
L 142.673921 129.389317 
L 140.212692 207.279747 
L 137.577063 180.343371 
z
" clip-path="url(#p85af73594e)" style="fill: none"/>
   </g>
   <g id="patch_28">
    <path d="M 87.711794 216.608953 
L 31.474419 201.082092 
L 26.789201 177.991712 
L 87.711794 216.608953 
z
" clip-path="url(#p85af73594e)" style="fill: none"/>
   </g>
   <g id="patch_29">
    <path d="M 149.902486 217.276057 
L 199.393788 199.049918 
L 203.785241 176.740199 
L 149.902486 217.276057 
z
" clip-path="url(#p85af73594e)" style="fill: none"/>
   </g>
   <g id="patch_30">
    <path d="M 66.197609 119.53316 
L 60.961917 111.986963 
L 72.110424 107.139431 
L 84.257209 107.324867 
L 95.049308 113.978744 
L 89.813616 121.524941 
L 87.19577 129.071139 
L 89.813616 136.617336 
L 95.049308 144.163533 
L 83.920023 146.790857 
L 71.846091 146.657715 
L 60.961917 142.171752 
L 66.197609 134.625555 
L 68.815456 127.079357 
L 66.197609 119.53316 
z
" clip-path="url(#p85af73594e)" style="fill: none"/>
   </g>
   <g id="patch_31">
    <path d="M 147.681222 122.1723 
L 142.673921 114.955284 
L 153.758113 108.385651 
L 165.751721 108.577546 
L 175.690912 113.948936 
L 170.683611 121.165952 
L 168.179961 128.382968 
L 170.683611 135.599984 
L 175.690912 142.817 
L 166.12968 146.809338 
L 154.309327 146.802105 
L 142.673921 143.823349 
L 147.681222 136.606333 
L 150.184872 129.389317 
L 147.681222 122.1723 
z
" clip-path="url(#p85af73594e)" style="fill: none"/>
   </g>
   <g id="patch_32">
    <path d="M 63.579763 124.060878 
L 60.961917 119.53316 
L 72.110424 114.685629 
L 84.257209 114.871064 
L 95.049308 121.524941 
L 92.431462 126.05266 
L 91.907893 129.071139 
L 92.431462 132.089618 
L 95.049308 136.617336 
L 83.920023 139.24466 
L 71.846091 139.111518 
L 60.961917 134.625555 
L 63.579763 130.097836 
L 64.103332 127.079357 
L 63.579763 124.060878 
z
" clip-path="url(#p85af73594e)" style="fill: none"/>
   </g>
   <g id="patch_33">
    <path d="M 145.177572 126.50251 
L 142.673921 122.1723 
L 153.758113 115.602667 
L 165.751721 115.794562 
L 175.690912 121.165952 
L 173.187261 125.496162 
L 172.686531 128.382968 
L 173.187261 131.269775 
L 175.690912 135.599984 
L 166.12968 139.592322 
L 154.309327 139.585089 
L 142.673921 136.606333 
L 145.177572 132.276123 
L 145.678302 129.389317 
L 145.177572 126.50251 
z
" clip-path="url(#p85af73594e)" style="fill: none"/>
   </g>
   <g id="patch_34">
    <path d="M 87.711794 216.608953 
L 99.423618 222.494006 
L 111.312778 225.136502 
L 120.232054 225.499303 
L 129.34563 225.043713 
L 140.004948 222.875371 
L 149.902486 217.276057 
L 140.004948 243.603241 
L 129.34563 245.771583 
L 120.232054 246.227172 
L 111.312778 245.864371 
L 99.423618 243.221875 
z
" clip-path="url(#p85af73594e)" style="fill: #3787c0; stroke: #3787c0; stroke-linejoin: miter"/>
   </g>
   <g id="patch_35">
    <path d="M 87.711794 216.608953 
L 98.971236 206.352329 
L 111.359773 200.270138 
L 119.651544 202.6808 
L 128.422264 200.631698 
L 140.212692 207.279747 
L 149.902486 217.276057 
L 119.910945 183.381544 
z
" clip-path="url(#p85af73594e)" style="fill: #3787c0; stroke: #3787c0; stroke-linejoin: miter"/>
   </g>
   <g id="patch_36">
    <path d="M 120.344261 136.43759 
L 70.644956 92.953344 
L 87.490484 93.86243 
z
" clip-path="url(#p85af73594e)" style="fill: #3787c0; stroke: #3787c0; stroke-linejoin: miter"/>
   </g>
   <g id="patch_37">
    <path d="M 63.579763 124.060878 
L 60.961917 119.53316 
L 72.110424 114.685629 
L 84.257209 114.871064 
L 95.049308 121.524941 
L 92.431462 126.05266 
L 91.907893 129.071139 
L 92.431462 132.089618 
L 95.049308 136.617336 
L 83.920023 139.24466 
L 71.846091 139.111518 
L 60.961917 134.625555 
L 63.579763 130.097836 
L 64.103332 127.079357 
L 63.579763 124.060878 
z
" clip-path="url(#p85af73594e)" style="fill: none"/>
   </g>
   <g id="patch_38">
    <path d="M 145.177572 126.50251 
L 142.673921 122.1723 
L 153.758113 115.602667 
L 165.751721 115.794562 
L 175.690912 121.165952 
L 173.187261 125.496162 
L 172.686531 128.382968 
L 173.187261 131.269775 
L 175.690912 135.599984 
L 166.12968 139.592322 
L 154.309327 139.585089 
L 142.673921 136.606333 
L 145.177572 132.276123 
L 145.678302 129.389317 
L 145.177572 126.50251 
z
" clip-path="url(#p85af73594e)" style="fill: none"/>
   </g>
   <g id="patch_39">
    <path d="M 26.789201 177.991712 
L 31.474419 201.082092 
L 39.440684 222.447582 
L 53.280611 240.703799 
L 72.239796 255.005749 
L 53.280611 183.381544 
L 26.789201 177.991712 
z
" clip-path="url(#p85af73594e)" style="fill: none"/>
   </g>
   <g id="patch_40">
    <path d="M 203.785241 176.740199 
L 199.393788 199.049918 
L 192.641769 220.40272 
L 180.939451 239.167567 
L 163.598081 253.926393 
L 180.939451 183.381544 
L 203.785241 176.740199 
z
" clip-path="url(#p85af73594e)" style="fill: none"/>
   </g>
   <g id="patch_41">
    <path d="M 26.789201 177.991712 
L 23.525216 154.396977 
L 22.792425 131.03061 
L 43.221369 107.746554 
L 60.961917 127.079357 
L 26.789201 177.991712 
z
" clip-path="url(#p85af73594e)" style="fill: none"/>
   </g>
   <g id="patch_42">
    <path d="M 203.785241 176.740199 
L 206.695173 154.257102 
L 207.252577 132.084905 
L 192.176233 106.947532 
L 175.690912 128.382968 
L 203.785241 176.740199 
z
" clip-path="url(#p85af73594e)" style="fill: none"/>
   </g>
   <g id="patch_43">
    <path d="M 60.961917 127.079357 
L 72.110424 122.231826 
L 84.257209 122.417261 
L 95.049308 129.071139 
L 83.920023 131.698462 
L 71.846091 131.565321 
z
" clip-path="url(#p85af73594e)" style="fill: #ffffff; stroke: #ffffff; stroke-linejoin: miter"/>
   </g>
   <g id="patch_44">
    <path d="M 142.673921 129.389317 
L 153.758113 122.819683 
L 165.751721 123.011578 
L 175.690912 128.382968 
L 166.12968 132.375306 
L 154.309327 132.368073 
z
" clip-path="url(#p85af73594e)" style="fill: #ffffff; stroke: #ffffff; stroke-linejoin: miter"/>
   </g>
   <g id="patch_45">
    <path d="M 92.735399 216.238586 
L 111.436952 210.580963 
L 119.751062 211.33179 
L 128.488665 210.884854 
L 145.102637 216.718827 
L 128.556082 213.804513 
L 119.92856 214.043532 
L 111.551026 213.542199 
z
" clip-path="url(#p85af73594e)" style="fill: #ffffff; stroke: #ffffff; stroke-linejoin: miter"/>
   </g>
   <g id="patch_46">
    <path d="M 78.033437 123.255278 
C 79.060984 123.255278 80.046584 123.647551 80.773169 124.345702 
C 81.499755 125.043853 81.908004 125.990883 81.908004 126.978218 
C 81.908004 127.965553 81.499755 128.912582 80.773169 129.610733 
C 80.046584 130.308884 79.060984 130.701157 78.033437 130.701157 
C 77.00589 130.701157 76.02029 130.308884 75.293704 129.610733 
C 74.567118 128.912582 74.15887 127.965553 74.15887 126.978218 
C 74.15887 125.990883 74.567118 125.043853 75.293704 124.345702 
C 76.02029 123.647551 77.00589 123.255278 78.033437 123.255278 
z
" clip-path="url(#p85af73594e)" style="stroke: #000000; stroke-linejoin: miter"/>
   </g>
   <g id="patch_47">
    <path d="M 159.98721 123.861237 
C 161.031175 123.861237 162.032523 124.259777 162.770717 124.969083 
C 163.508912 125.678389 163.923684 126.64055 163.923684 127.64366 
C 163.923684 128.646771 163.508912 129.608931 162.770717 130.318237 
C 162.032523 131.027544 161.031175 131.426084 159.98721 131.426084 
C 158.943245 131.426084 157.941897 131.027544 157.203703 130.318237 
C 156.465508 129.608931 156.050736 128.646771 156.050736 127.64366 
C 156.050736 126.64055 156.465508 125.678389 157.203703 124.969083 
C 157.941897 124.259777 158.943245 123.861237 159.98721 123.861237 
z
" clip-path="url(#p85af73594e)" style="stroke: #000000; stroke-linejoin: miter"/>
   </g>
   <g id="Quiver_1">
    <path d="M 78.591437 126.978218 
L 78.312437 126.494975 
L 77.754437 126.494975 
L 77.475437 126.978218 
L 77.754437 127.46146 
L 78.312437 127.46146 
L 78.591437 126.978218 
L 78.312437 126.494975 
" clip-path="url(#p85af73594e)" style="fill: #ff0000"/>
    <path d="M 160.54521 127.64366 
L 160.26621 127.160418 
L 159.70821 127.160418 
L 159.42921 127.64366 
L 159.70821 128.126902 
L 160.26621 128.126902 
L 160.54521 127.64366 
L 160.26621 127.160418 
" clip-path="url(#p85af73594e)" style="fill: #ff0000"/>
   </g>
   <g id="line2d_1">
    <path d="M 22.792425 131.03061 
L 23.525216 154.396977 
L 26.789201 177.991712 
L 31.474419 201.082092 
L 39.440684 222.447582 
L 53.280611 240.703799 
L 72.239796 255.005749 
L 94.960726 264.382573 
L 119.280866 266.955042 
L 143.027917 263.88065 
L 163.598081 253.926393 
L 180.939451 239.167567 
L 192.641769 220.40272 
L 199.393788 199.049918 
L 203.785241 176.740199 
L 206.695173 154.257102 
L 207.252577 132.084905 
" clip-path="url(#p85af73594e)" style="fill: none; stroke: #000000; stroke-linecap: square"/>
   </g>
   <g id="line2d_2">
    <path d="M 60.961917 127.079357 
L 72.110424 122.231826 
L 84.257209 122.417261 
L 95.049308 129.071139 
L 83.920023 131.698462 
L 71.846091 131.565321 
L 60.961917 127.079357 
" clip-path="url(#p85af73594e)" style="fill: none; stroke: #000000; stroke-linecap: square"/>
   </g>
   <g id="line2d_3">
    <path d="M 142.673921 129.389317 
L 153.758113 122.819683 
L 165.751721 123.011578 
L 175.690912 128.382968 
L 166.12968 132.375306 
L 154.309327 132.368073 
L 142.673921 129.389317 
" clip-path="url(#p85af73594e)" style="fill: none; stroke: #000000; stroke-linecap: square"/>
   </g>
   <g id="line2d_4">
    <path d="M 43.221369 107.746554 
L 54.541725 97.628139 
L 70.644956 92.953344 
L 87.490484 93.86243 
L 103.29273 98.88635 
" clip-path="url(#p85af73594e)" style="fill: none; stroke: #000000; stroke-linecap: square"/>
   </g>
   <g id="line2d_5">
    <path d="M 137.407813 98.338503 
L 152.181214 93.951619 
L 167.80917 93.178939 
L 182.384914 97.28922 
L 192.176233 106.947532 
" clip-path="url(#p85af73594e)" style="fill: none; stroke: #000000; stroke-linecap: square"/>
   </g>
   <g id="line2d_6">
    <path d="M 87.711794 216.608953 
L 98.971236 206.352329 
L 111.359773 200.270138 
L 119.651544 202.6808 
L 128.422264 200.631698 
L 140.212692 207.279747 
L 149.902486 217.276057 
L 145.102637 216.718827 
L 128.488665 210.884854 
L 119.751062 211.33179 
L 111.436952 210.580963 
L 92.735399 216.238586 
L 87.711794 216.608953 
" clip-path="url(#p85af73594e)" style="fill: none; stroke: #000000; stroke-linecap: square"/>
   </g>
   <g id="line2d_7">
    <path d="M 87.711794 216.608953 
L 92.735399 216.238586 
L 111.551026 213.542199 
L 119.92856 214.043532 
L 128.556082 213.804513 
L 145.102637 216.718827 
L 149.902486 217.276057 
L 140.004948 222.875371 
L 129.34563 225.043713 
L 120.232054 225.499303 
L 111.312778 225.136502 
L 99.423618 222.494006 
L 87.711794 216.608953 
" clip-path="url(#p85af73594e)" style="fill: none; stroke: #000000; stroke-linecap: square"/>
   </g>
   <g id="line2d_8">
    <path d="M 120.217477 122.673327 
L 120.344261 136.43759 
L 120.481047 149.880396 
L 120.745247 163.466025 
" clip-path="url(#p85af73594e)" style="fill: none; stroke: #000000; stroke-linecap: square"/>
   </g>
   <g id="line2d_9">
    <path d="M 101.468807 179.810284 
L 110.48366 181.861936 
L 119.910945 183.381544 
L 129.192017 182.212939 
L 137.577063 180.343371 
" clip-path="url(#p85af73594e)" style="fill: none; stroke: #000000; stroke-linecap: square"/>
   </g>
   <g id="patch_48">
    <path d="M 7.2 301.037813 
L 7.2 23.837813 
" style="fill: none; stroke: #000000; stroke-width: 0.8; stroke-linejoin: miter; stroke-linecap: square"/>
   </g>
   <g id="patch_49">
    <path d="M 230.4 301.037813 
L 230.4 23.837813 
" style="fill: none; stroke: #000000; stroke-width: 0.8; stroke-linejoin: miter; stroke-linecap: square"/>
   </g>
   <g id="patch_50">
    <path d="M 7.2 301.037813 
L 230.4 301.037813 
" style="fill: none; stroke: #000000; stroke-width: 0.8; stroke-linejoin: miter; stroke-linecap: square"/>
   </g>
   <g id="patch_51">
    <path d="M 7.2 23.837812 
L 230.4 23.837812 
" style="fill: none; stroke: #000000; stroke-width: 0.8; stroke-linejoin: miter; stroke-linecap: square"/>
   </g>
   <g id="text_1">
    <!-- Neutral -->
    <g transform="translate(92.963437 17.837812) scale(0.14 -0.14)">
     <defs>
      <path id="DejaVuSans-4e" d="M 628 4666 
L 1478 4666 
L 3547 763 
L 3547 4666 
L 4159 4666 
L 4159 0 
L 3309 0 
L 1241 3903 
L 1241 0 
L 628 0 
L 628 4666 
z
" transform="scale(0.015625)"/>
      <path id="DejaVuSans-65" d="M 3597 1894 
L 3597 1613 
L 953 1613 
Q 991 1019 1311 708 
Q 1631 397 2203 397 
Q 2534 397 2845 478 
Q 3156 559 3463 722 
L 3463 178 
Q 3153 47 2828 -22 
Q 2503 -91 2169 -91 
Q 1331 -91 842 396 
Q 353 884 353 1716 
Q 353 2575 817 3079 
Q 1281 3584 2069 3584 
Q 2775 3584 3186 3129 
Q 3597 2675 3597 1894 
z
M 3022 2063 
Q 3016 2534 2758 2815 
Q 2500 3097 2075 3097 
Q 1594 3097 1305 2825 
Q 1016 2553 972 2059 
L 3022 2063 
z
" transform="scale(0.015625)"/>
      <path id="DejaVuSans-75" d="M 544 1381 
L 544 3500 
L 1119 3500 
L 1119 1403 
Q 1119 906 1312 657 
Q 1506 409 1894 409 
Q 2359 409 2629 706 
Q 2900 1003 2900 1516 
L 2900 3500 
L 3475 3500 
L 3475 0 
L 2900 0 
L 2900 538 
Q 2691 219 2414 64 
Q 2138 -91 1772 -91 
Q 1169 -91 856 284 
Q 544 659 544 1381 
z
M 1991 3584 
L 1991 3584 
z
" transform="scale(0.015625)"/>
      <path id="DejaVuSans-74" d="M 1172 4494 
L 1172 3500 
L 2356 3500 
L 2356 3053 
L 1172 3053 
L 1172 1153 
Q 1172 725 1289 603 
Q 1406 481 1766 481 
L 2356 481 
L 2356 0 
L 1766 0 
Q 1100 0 847 248 
Q 594 497 594 1153 
L 594 3053 
L 172 3053 
L 172 3500 
L 594 3500 
L 594 4494 
L 1172 4494 
z
" transform="scale(0.015625)"/>
      <path id="DejaVuSans-72" d="M 2631 2963 
Q 2534 3019 2420 3045 
Q 2306 3072 2169 3072 
Q 1681 3072 1420 2755 
Q 1159 2438 1159 1844 
L 1159 0 
L 581 0 
L 581 3500 
L 1159 3500 
L 1159 2956 
Q 1341 3275 1631 3429 
Q 1922 3584 2338 3584 
Q 2397 3584 2469 3576 
Q 2541 3569 2628 3553 
L 2631 2963 
z
" transform="scale(0.015625)"/>
      <path id="DejaVuSans-61" d="M 2194 1759 
Q 1497 1759 1228 1600 
Q 959 1441 959 1056 
Q 959 750 1161 570 
Q 1363 391 1709 391 
Q 2188 391 2477 730 
Q 2766 1069 2766 1631 
L 2766 1759 
L 2194 1759 
z
M 3341 1997 
L 3341 0 
L 2766 0 
L 2766 531 
Q 2569 213 2275 61 
Q 1981 -91 1556 -91 
Q 1019 -91 701 211 
Q 384 513 384 1019 
Q 384 1609 779 1909 
Q 1175 2209 1959 2209 
L 2766 2209 
L 2766 2266 
Q 2766 2663 2505 2880 
Q 2244 3097 1772 3097 
Q 1472 3097 1187 3025 
Q 903 2953 641 2809 
L 641 3341 
Q 956 3463 1253 3523 
Q 1550 3584 1831 3584 
Q 2591 3584 2966 3190 
Q 3341 2797 3341 1997 
z
" transform="scale(0.015625)"/>
      <path id="DejaVuSans-6c" d="M 603 4863 
L 1178 4863 
L 1178 0 
L 603 0 
L 603 4863 
z
" transform="scale(0.015625)"/>
     </defs>
     <use xlink:href="#DejaVuSans-4e"/>
     <use xlink:href="#DejaVuSans-65" x="74.804688"/>
     <use xlink:href="#DejaVuSans-75" x="136.328125"/>
     <use xlink:href="#DejaVuSans-74" x="199.707031"/>
     <use xlink:href="#DejaVuSans-72" x="238.916016"/>
     <use xlink:href="#DejaVuSans-61" x="280.029297"/>
     <use xlink:href="#DejaVuSans-6c" x="341.308594"/>
    </g>
   </g>
  </g>
 </g>
 <defs>
  <clipPath id="p85af73594e">
   <rect x="7.2" y="23.837812" width="223.2" height="277.2"/>
  </clipPath>
 </defs>
</svg>
