<?xml version="1.0" encoding="utf-8" standalone="no"?>
<!DOCTYPE svg PUBLIC "-//W3C//DTD SVG 1.1//EN"
  "http://www.w3.org/Graphics/SVG/1.1/DTD/svg11.dtd">
<svg xmlns:xlink="http://www.w3.org/1999/xlink" width="237.6pt" height="308.237813pt" viewBox="0 0 237.6 308.237813" xmlns="http://www.w3.org/2000/svg" version="1.1">
 <metadata>
  <rdf:RDF xmlns:dc="http://purl.org/dc/elements/1.1/" xmlns:cc="http://creativecommons.org/ns#" xmlns:rdf="http://www.w3.org/1999/02/22-rdf-syntax-ns#">
   <cc:Work>
    <dc:type rdf:resource="http://purl.org/dc/dcmitype/StillImage"/>
    <dc:date>2025-05-16T15:41:25.833720</dc:date>
    <dc:format>image/svg+xml</dc:format>
    <dc:creator>
     <cc:Agent>
      <dc:title>Matplotlib v3.9.2, https://matplotlib.org/</dc:title>
     </cc:Agent>
    </dc:creator>
   </cc:Work>
  </rdf:RDF>
 </metadata>
 <defs>
  <style type="text/css">*{stroke-linejoin: round; stroke-linecap: butt}</style>
 </defs>
 <g id="figure_1">
  <g id="patch_1">
   <path d="M 0 308.237813 
L 237.6 308.237813 
L 237.6 0 
L 0 0 
z
" style="fill: #ffffff"/>
  </g>
  <g id="axes_1">
   <g id="patch_2">
    <path d="M 7.2 301.037813 
L 230.4 301.037813 
L 230.4 23.837812 
L 7.2 23.837812 
z
" style="fill: #ffffff"/>
   </g>
   <g id="patch_3">
    <path d="M 81.499334 208.680802 
L 56.946612 200.066138 
L 56.946612 232.844823 
L 81.499334 208.680802 
z
" clip-path="url(#p17163f7c71)" style="fill: none"/>
   </g>
   <g id="patch_4">
    <path d="M 155.402221 208.629383 
L 177.68525 200.218435 
L 177.68525 232.844823 
L 155.402221 208.629383 
z
" clip-path="url(#p17163f7c71)" style="fill: none"/>
   </g>
   <g id="patch_5">
    <path d="M 27.940336 172.006476 
L 32.893088 197.015102 
L 42.137058 219.913072 
L 56.946612 239.477449 
L 75.377024 255.604795 
L 56.946612 187.403359 
z
" clip-path="url(#p17163f7c71)" style="fill: #3787c0; stroke: #3787c0; stroke-linejoin: miter"/>
   </g>
   <g id="patch_6">
    <path d="M 203.349537 170.607164 
L 198.818692 194.956028 
L 190.848472 217.787727 
L 177.68525 237.873817 
L 160.925239 254.780625 
L 177.68525 187.403359 
z
" clip-path="url(#p17163f7c71)" style="fill: #3787c0; stroke: #3787c0; stroke-linejoin: miter"/>
   </g>
   <g id="patch_7">
    <path d="M 27.940336 172.006476 
L 25.32822 146.621682 
L 24.682724 121.265863 
L 43.939353 108.037159 
L 60.90882 125.736859 
z
" clip-path="url(#p17163f7c71)" style="fill: #3787c0; stroke: #3787c0; stroke-linejoin: miter"/>
   </g>
   <g id="patch_8">
    <path d="M 203.349537 170.607164 
L 205.716176 146.281401 
L 205.828851 122.24772 
L 192.411369 108.304577 
L 176.134461 127.580973 
z
" clip-path="url(#p17163f7c71)" style="fill: #3787c0; stroke: #3787c0; stroke-linejoin: miter"/>
   </g>
   <g id="patch_9">
    <path d="M 120.100447 232.844823 
L 108.839862 231.449761 
L 94.309071 223.581815 
L 75.377024 255.604795 
L 96.518465 268.091248 
L 120.100447 232.844823 
z
" clip-path="url(#p17163f7c71)" style="fill: none"/>
   </g>
   <g id="patch_10">
    <path d="M 120.100447 232.844823 
L 131.835417 231.134149 
L 145.006932 223.308436 
L 160.925239 254.780625 
L 141.816907 267.81253 
L 120.100447 232.844823 
z
" clip-path="url(#p17163f7c71)" style="fill: none"/>
   </g>
   <g id="patch_11">
    <path d="M 81.499334 208.680802 
L 96.518465 268.091248 
L 75.377024 255.604795 
z
" clip-path="url(#p17163f7c71)" style="fill: #3787c0; stroke: #3787c0; stroke-linejoin: miter"/>
   </g>
   <g id="patch_12">
    <path d="M 155.402221 208.629383 
L 141.816907 267.81253 
L 160.925239 254.780625 
z
" clip-path="url(#p17163f7c71)" style="fill: #3787c0; stroke: #3787c0; stroke-linejoin: miter"/>
   </g>
   <g id="patch_13">
    <path d="M 108.839862 231.449761 
L 96.518465 268.091248 
L 119.456437 272.103659 
L 108.839862 231.449761 
z
" clip-path="url(#p17163f7c71)" style="fill: none"/>
   </g>
   <g id="patch_14">
    <path d="M 131.835417 231.134149 
L 141.816907 267.81253 
L 119.456437 272.103659 
L 131.835417 231.134149 
z
" clip-path="url(#p17163f7c71)" style="fill: none"/>
   </g>
   <g id="patch_15">
    <path d="M 42.137058 219.913072 
L 56.946612 239.477449 
L 81.499334 208.680802 
L 42.137058 219.913072 
z
" clip-path="url(#p17163f7c71)" style="fill: none"/>
   </g>
   <g id="patch_16">
    <path d="M 177.68525 237.873817 
L 190.848472 217.787727 
L 155.402221 208.629383 
L 177.68525 237.873817 
z
" clip-path="url(#p17163f7c71)" style="fill: none"/>
   </g>
   <g id="patch_17">
    <path d="M 119.809117 124.522939 
L 95.284874 129.001252 
L 84.762682 122.451264 
L 72.872797 121.846823 
L 60.90882 125.736859 
L 43.939353 108.037159 
L 55.867893 98.68515 
L 71.633389 96.116066 
L 87.590575 98.396261 
L 102.119165 103.89921 
L 119.809117 124.522939 
z
" clip-path="url(#p17163f7c71)" style="fill: none"/>
   </g>
   <g id="patch_18">
    <path d="M 119.809117 124.522939 
L 95.284874 129.001252 
L 102.119165 103.89921 
L 119.809117 124.522939 
z
" clip-path="url(#p17163f7c71)" style="fill: none"/>
   </g>
   <g id="patch_19">
    <path d="M 119.809117 124.522939 
L 136.208586 103.304714 
L 151.140001 98.13713 
L 166.726293 96.005254 
L 181.636579 98.837858 
L 192.411369 108.304577 
L 176.134461 127.580973 
L 165.414478 123.036338 
L 153.674963 123.042612 
L 142.350731 129.668161 
L 119.809117 124.522939 
z
" clip-path="url(#p17163f7c71)" style="fill: none"/>
   </g>
   <g id="patch_20">
    <path d="M 119.809117 124.522939 
L 142.350731 129.668161 
L 136.208586 103.304714 
L 119.809117 124.522939 
z
" clip-path="url(#p17163f7c71)" style="fill: none"/>
   </g>
   <g id="patch_21">
    <path d="M 119.773958 139.990128 
L 151.140001 98.13713 
L 166.726293 96.005254 
L 119.773958 139.990128 
z
" clip-path="url(#p17163f7c71)" style="fill: none"/>
   </g>
   <g id="patch_22">
    <path d="M 88.753775 129.001252 
L 95.284874 141.552273 
L 84.117181 163.645105 
L 72.340771 163.136951 
L 60.90882 158.773666 
L 72.369597 142.255263 
L 67.439919 125.736859 
z
" clip-path="url(#p17163f7c71)" style="fill: #3787c0; stroke: #3787c0; stroke-linejoin: miter"/>
   </g>
   <g id="patch_23">
    <path d="M 148.830689 129.668161 
L 154.121207 163.31408 
L 165.738065 163.026137 
L 176.134461 159.294857 
L 165.132619 143.437915 
L 169.654503 127.580973 
z
" clip-path="url(#p17163f7c71)" style="fill: #3787c0; stroke: #3787c0; stroke-linejoin: miter"/>
   </g>
   <g id="patch_24">
    <path d="M 72.340771 130.100144 
L 84.117181 130.608298 
L 95.434609 202.912968 
L 72.340771 130.100144 
z
" clip-path="url(#p17163f7c71)" style="fill: none"/>
   </g>
   <g id="patch_25">
    <path d="M 154.121207 131.600196 
L 165.738065 131.312253 
L 143.359128 203.359448 
L 154.121207 131.600196 
z
" clip-path="url(#p17163f7c71)" style="fill: none"/>
   </g>
   <g id="patch_26">
    <path d="M 95.284874 129.001252 
L 95.434609 202.912968 
L 99.078643 181.172583 
L 95.284874 129.001252 
z
" clip-path="url(#p17163f7c71)" style="fill: none"/>
   </g>
   <g id="patch_27">
    <path d="M 139.444801 181.31737 
L 142.350731 129.668161 
L 143.359128 203.359448 
L 139.444801 181.31737 
z
" clip-path="url(#p17163f7c71)" style="fill: none"/>
   </g>
   <g id="patch_28">
    <path d="M 81.499334 208.680802 
L 32.893088 197.015102 
L 27.940336 172.006476 
z
" clip-path="url(#p17163f7c71)" style="fill: #3787c0; stroke: #3787c0; stroke-linejoin: miter"/>
   </g>
   <g id="patch_29">
    <path d="M 155.402221 208.629383 
L 198.818692 194.956028 
L 203.349537 170.607164 
z
" clip-path="url(#p17163f7c71)" style="fill: #3787c0; stroke: #3787c0; stroke-linejoin: miter"/>
   </g>
   <g id="patch_30">
    <path d="M 65.262886 119.461348 
L 60.90882 113.185838 
L 72.872797 109.295802 
L 84.762682 109.900243 
L 95.284874 116.450231 
L 90.930808 122.725742 
L 88.753775 129.001252 
L 90.930808 135.276763 
L 95.284874 141.552273 
L 84.117181 143.159319 
L 72.340771 142.651165 
L 60.90882 138.28788 
L 65.262886 132.012369 
L 67.439919 125.736859 
z
" clip-path="url(#p17163f7c71)" style="fill: #3787c0; stroke: #3787c0; stroke-linejoin: miter"/>
   </g>
   <g id="patch_31">
    <path d="M 146.670703 123.44179 
L 142.350731 117.215419 
L 153.674963 110.589871 
L 165.414478 110.583597 
L 176.134461 115.128232 
L 171.814489 121.354602 
L 169.654503 127.580973 
L 171.814489 133.807344 
L 176.134461 140.033714 
L 165.738065 143.764994 
L 154.121207 144.052937 
L 142.350731 142.120902 
L 146.670703 135.894531 
L 148.830689 129.668161 
z
" clip-path="url(#p17163f7c71)" style="fill: #3787c0; stroke: #3787c0; stroke-linejoin: miter"/>
   </g>
   <g id="patch_32">
    <path d="M 63.085853 123.226655 
L 60.90882 119.461348 
L 72.872797 115.571312 
L 84.762682 116.175754 
L 95.284874 122.725742 
L 93.107841 126.491048 
L 92.672434 129.001252 
L 93.107841 131.511456 
L 95.284874 135.276763 
L 84.117181 136.883809 
L 72.340771 136.375655 
L 60.90882 132.012369 
L 63.085853 128.247063 
L 63.52126 125.736859 
L 63.085853 123.226655 
z
" clip-path="url(#p17163f7c71)" style="fill: none"/>
   </g>
   <g id="patch_33">
    <path d="M 144.510717 127.177612 
L 142.350731 123.44179 
L 153.674963 116.816242 
L 165.414478 116.809968 
L 176.134461 121.354602 
L 173.974475 125.090425 
L 173.542478 127.580973 
L 173.974475 130.071521 
L 176.134461 133.807344 
L 165.738065 137.538624 
L 154.121207 137.826567 
L 142.350731 135.894531 
L 144.510717 132.158709 
L 144.942714 129.668161 
L 144.510717 127.177612 
z
" clip-path="url(#p17163f7c71)" style="fill: none"/>
   </g>
   <g id="patch_34">
    <path d="M 81.499334 208.680802 
L 94.309071 223.581815 
L 108.839862 231.449761 
L 120.100447 232.844823 
L 131.835417 231.134149 
L 145.006932 223.308436 
L 155.402221 208.629383 
L 145.006932 242.937854 
L 131.835417 250.763567 
L 120.100447 252.474241 
L 108.839862 251.079179 
L 94.309071 243.211233 
L 81.499334 208.680802 
z
" clip-path="url(#p17163f7c71)" style="fill: none"/>
   </g>
   <g id="patch_35">
    <path d="M 81.499334 208.680802 
L 95.434609 202.912968 
L 110.176227 200.066138 
L 119.550714 202.626427 
L 129.681983 200.218435 
L 143.359128 203.359448 
L 155.402221 208.629383 
L 119.91165 187.403359 
L 81.499334 208.680802 
z
" clip-path="url(#p17163f7c71)" style="fill: none"/>
   </g>
   <g id="patch_36">
    <path d="M 119.773958 139.990128 
L 71.633389 96.116066 
L 87.590575 98.396261 
L 119.773958 139.990128 
z
" clip-path="url(#p17163f7c71)" style="fill: none"/>
   </g>
   <g id="patch_37">
    <path d="M 63.085853 123.226655 
L 60.90882 119.461348 
L 72.872797 115.571312 
L 84.762682 116.175754 
L 95.284874 122.725742 
L 93.107841 126.491048 
L 92.672434 129.001252 
L 93.107841 131.511456 
L 95.284874 135.276763 
L 84.117181 136.883809 
L 72.340771 136.375655 
L 60.90882 132.012369 
L 63.085853 128.247063 
L 63.52126 125.736859 
L 63.085853 123.226655 
z
" clip-path="url(#p17163f7c71)" style="fill: none"/>
   </g>
   <g id="patch_38">
    <path d="M 144.510717 127.177612 
L 142.350731 123.44179 
L 153.674963 116.816242 
L 165.414478 116.809968 
L 176.134461 121.354602 
L 173.974475 125.090425 
L 173.542478 127.580973 
L 173.974475 130.071521 
L 176.134461 133.807344 
L 165.738065 137.538624 
L 154.121207 137.826567 
L 142.350731 135.894531 
L 144.510717 132.158709 
L 144.942714 129.668161 
L 144.510717 127.177612 
z
" clip-path="url(#p17163f7c71)" style="fill: none"/>
   </g>
   <g id="patch_39">
    <path d="M 27.940336 172.006476 
L 32.893088 197.015102 
L 42.137058 219.913072 
L 56.946612 239.477449 
L 75.377024 255.604795 
L 56.946612 187.403359 
z
" clip-path="url(#p17163f7c71)" style="fill: #3787c0; stroke: #3787c0; stroke-linejoin: miter"/>
   </g>
   <g id="patch_40">
    <path d="M 203.349537 170.607164 
L 198.818692 194.956028 
L 190.848472 217.787727 
L 177.68525 237.873817 
L 160.925239 254.780625 
L 177.68525 187.403359 
z
" clip-path="url(#p17163f7c71)" style="fill: #3787c0; stroke: #3787c0; stroke-linejoin: miter"/>
   </g>
   <g id="patch_41">
    <path d="M 27.940336 172.006476 
L 25.32822 146.621682 
L 24.682724 121.265863 
L 43.939353 108.037159 
L 60.90882 125.736859 
z
" clip-path="url(#p17163f7c71)" style="fill: #3787c0; stroke: #3787c0; stroke-linejoin: miter"/>
   </g>
   <g id="patch_42">
    <path d="M 203.349537 170.607164 
L 205.716176 146.281401 
L 205.828851 122.24772 
L 192.411369 108.304577 
L 176.134461 127.580973 
z
" clip-path="url(#p17163f7c71)" style="fill: #3787c0; stroke: #3787c0; stroke-linejoin: miter"/>
   </g>
   <g id="patch_43">
    <path d="M 60.90882 125.736859 
L 72.872797 121.846823 
L 84.762682 122.451264 
L 95.284874 129.001252 
L 84.117181 130.608298 
L 72.340771 130.100144 
z
" clip-path="url(#p17163f7c71)" style="fill: #ffffff; stroke: #ffffff; stroke-linejoin: miter"/>
   </g>
   <g id="patch_44">
    <path d="M 142.350731 129.668161 
L 153.674963 123.042612 
L 165.414478 123.036338 
L 176.134461 127.580973 
L 165.738065 131.312253 
L 154.121207 131.600196 
z
" clip-path="url(#p17163f7c71)" style="fill: #ffffff; stroke: #ffffff; stroke-linejoin: miter"/>
   </g>
   <g id="patch_45">
    <path d="M 85.733093 209.381196 
L 109.843069 209.557233 
L 119.766491 210.860498 
L 130.169357 209.557334 
L 151.191355 209.408901 
L 130.931343 218.968793 
L 119.910988 220.515892 
L 109.36199 219.268031 
z
" clip-path="url(#p17163f7c71)" style="fill: #ffffff; stroke: #ffffff; stroke-linejoin: miter"/>
   </g>
   <g id="patch_46">
    <path d="M 78.523358 122.969561 
C 79.429224 122.969561 80.298109 123.315381 80.938653 123.930858 
C 81.579197 124.546334 81.939101 125.381217 81.939101 126.251632 
C 81.939101 127.122048 81.579197 127.95693 80.938653 128.572407 
C 80.298109 129.187884 79.429224 129.533703 78.523358 129.533703 
C 77.617492 129.533703 76.748607 129.187884 76.108063 128.572407 
C 75.467519 127.95693 75.107615 127.122048 75.107615 126.251632 
C 75.107615 125.381217 75.467519 124.546334 76.108063 123.930858 
C 76.748607 123.315381 77.617492 122.969561 78.523358 122.969561 
z
" clip-path="url(#p17163f7c71)" style="stroke: #000000; stroke-linejoin: miter"/>
   </g>
   <g id="patch_47">
    <path d="M 159.737178 123.88115 
C 160.666402 123.88115 161.557692 124.235887 162.214752 124.867234 
C 162.871813 125.498581 163.240997 126.354991 163.240997 127.24785 
C 163.240997 128.140709 162.871813 128.997119 162.214752 129.628466 
C 161.557692 130.259813 160.666402 130.61455 159.737178 130.61455 
C 158.807955 130.61455 157.916665 130.259813 157.259605 129.628466 
C 156.602544 128.997119 156.23336 128.140709 156.23336 127.24785 
C 156.23336 126.354991 156.602544 125.498581 157.259605 124.867234 
C 157.916665 124.235887 158.807955 123.88115 159.737178 123.88115 
z
" clip-path="url(#p17163f7c71)" style="stroke: #000000; stroke-linejoin: miter"/>
   </g>
   <g id="Quiver_1">
    <path d="M 79.081358 126.251632 
L 78.802358 125.76839 
L 78.244358 125.76839 
L 77.965358 126.251632 
L 78.244358 126.734874 
L 78.802358 126.734874 
L 79.081358 126.251632 
L 78.802358 125.76839 
" clip-path="url(#p17163f7c71)" style="fill: #ff0000"/>
    <path d="M 160.295178 127.24785 
L 160.016178 126.764608 
L 159.458178 126.764608 
L 159.179178 127.24785 
L 159.458178 127.731092 
L 160.016178 127.731092 
L 160.295178 127.24785 
L 160.016178 126.764608 
" clip-path="url(#p17163f7c71)" style="fill: #ff0000"/>
   </g>
   <g id="line2d_1">
    <path d="M 24.682724 121.265863 
L 25.32822 146.621682 
L 27.940336 172.006476 
L 32.893088 197.015102 
L 42.137058 219.913072 
L 56.946612 239.477449 
L 75.377024 255.604795 
L 96.518465 268.091248 
L 119.456437 272.103659 
L 141.816907 267.81253 
L 160.925239 254.780625 
L 177.68525 237.873817 
L 190.848472 217.787727 
L 198.818692 194.956028 
L 203.349537 170.607164 
L 205.716176 146.281401 
L 205.828851 122.24772 
" clip-path="url(#p17163f7c71)" style="fill: none; stroke: #000000; stroke-linecap: square"/>
   </g>
   <g id="line2d_2">
    <path d="M 60.90882 125.736859 
L 72.872797 121.846823 
L 84.762682 122.451264 
L 95.284874 129.001252 
L 84.117181 130.608298 
L 72.340771 130.100144 
L 60.90882 125.736859 
" clip-path="url(#p17163f7c71)" style="fill: none; stroke: #000000; stroke-linecap: square"/>
   </g>
   <g id="line2d_3">
    <path d="M 142.350731 129.668161 
L 153.674963 123.042612 
L 165.414478 123.036338 
L 176.134461 127.580973 
L 165.738065 131.312253 
L 154.121207 131.600196 
L 142.350731 129.668161 
" clip-path="url(#p17163f7c71)" style="fill: none; stroke: #000000; stroke-linecap: square"/>
   </g>
   <g id="line2d_4">
    <path d="M 43.939353 108.037159 
L 55.867893 98.68515 
L 71.633389 96.116066 
L 87.590575 98.396261 
L 102.119165 103.89921 
" clip-path="url(#p17163f7c71)" style="fill: none; stroke: #000000; stroke-linecap: square"/>
   </g>
   <g id="line2d_5">
    <path d="M 136.208586 103.304714 
L 151.140001 98.13713 
L 166.726293 96.005254 
L 181.636579 98.837858 
L 192.411369 108.304577 
" clip-path="url(#p17163f7c71)" style="fill: none; stroke: #000000; stroke-linecap: square"/>
   </g>
   <g id="line2d_6">
    <path d="M 81.499334 208.680802 
L 95.434609 202.912968 
L 110.176227 200.066138 
L 119.550714 202.626427 
L 129.681983 200.218435 
L 143.359128 203.359448 
L 155.402221 208.629383 
L 151.191355 209.408901 
L 130.169357 209.557334 
L 119.766491 210.860498 
L 109.843069 209.557233 
L 85.733093 209.381196 
L 81.499334 208.680802 
" clip-path="url(#p17163f7c71)" style="fill: none; stroke: #000000; stroke-linecap: square"/>
   </g>
   <g id="line2d_7">
    <path d="M 81.499334 208.680802 
L 85.733093 209.381196 
L 109.36199 219.268031 
L 119.910988 220.515892 
L 130.931343 218.968793 
L 151.191355 209.408901 
L 155.402221 208.629383 
L 145.006932 223.308436 
L 131.835417 231.134149 
L 120.100447 232.844823 
L 108.839862 231.449761 
L 94.309071 223.581815 
L 81.499334 208.680802 
" clip-path="url(#p17163f7c71)" style="fill: none; stroke: #000000; stroke-linecap: square"/>
   </g>
   <g id="line2d_8">
    <path d="M 119.809117 124.522939 
L 119.773958 139.990128 
L 120.155545 155.099345 
L 120.432758 170.252447 
" clip-path="url(#p17163f7c71)" style="fill: none; stroke: #000000; stroke-linecap: square"/>
   </g>
   <g id="line2d_9">
    <path d="M 99.078643 181.172583 
L 108.934569 184.887003 
L 119.91165 187.403359 
L 130.340927 184.929254 
L 139.444801 181.31737 
" clip-path="url(#p17163f7c71)" style="fill: none; stroke: #000000; stroke-linecap: square"/>
   </g>
   <g id="patch_48">
    <path d="M 7.2 301.037813 
L 7.2 23.837813 
" style="fill: none; stroke: #000000; stroke-width: 0.8; stroke-linejoin: miter; stroke-linecap: square"/>
   </g>
   <g id="patch_49">
    <path d="M 230.4 301.037813 
L 230.4 23.837813 
" style="fill: none; stroke: #000000; stroke-width: 0.8; stroke-linejoin: miter; stroke-linecap: square"/>
   </g>
   <g id="patch_50">
    <path d="M 7.2 301.037813 
L 230.4 301.037813 
" style="fill: none; stroke: #000000; stroke-width: 0.8; stroke-linejoin: miter; stroke-linecap: square"/>
   </g>
   <g id="patch_51">
    <path d="M 7.2 23.837812 
L 230.4 23.837812 
" style="fill: none; stroke: #000000; stroke-width: 0.8; stroke-linejoin: miter; stroke-linecap: square"/>
   </g>
   <g id="text_1">
    <!-- Smiling -->
    <g transform="translate(92.823437 17.837812) scale(0.14 -0.14)">
     <defs>
      <path id="DejaVuSans-53" d="M 3425 4513 
L 3425 3897 
Q 3066 4069 2747 4153 
Q 2428 4238 2131 4238 
Q 1616 4238 1336 4038 
Q 1056 3838 1056 3469 
Q 1056 3159 1242 3001 
Q 1428 2844 1947 2747 
L 2328 2669 
Q 3034 2534 3370 2195 
Q 3706 1856 3706 1288 
Q 3706 609 3251 259 
Q 2797 -91 1919 -91 
Q 1588 -91 1214 -16 
Q 841 59 441 206 
L 441 856 
Q 825 641 1194 531 
Q 1563 422 1919 422 
Q 2459 422 2753 634 
Q 3047 847 3047 1241 
Q 3047 1584 2836 1778 
Q 2625 1972 2144 2069 
L 1759 2144 
Q 1053 2284 737 2584 
Q 422 2884 422 3419 
Q 422 4038 858 4394 
Q 1294 4750 2059 4750 
Q 2388 4750 2728 4690 
Q 3069 4631 3425 4513 
z
" transform="scale(0.015625)"/>
      <path id="DejaVuSans-6d" d="M 3328 2828 
Q 3544 3216 3844 3400 
Q 4144 3584 4550 3584 
Q 5097 3584 5394 3201 
Q 5691 2819 5691 2113 
L 5691 0 
L 5113 0 
L 5113 2094 
Q 5113 2597 4934 2840 
Q 4756 3084 4391 3084 
Q 3944 3084 3684 2787 
Q 3425 2491 3425 1978 
L 3425 0 
L 2847 0 
L 2847 2094 
Q 2847 2600 2669 2842 
Q 2491 3084 2119 3084 
Q 1678 3084 1418 2786 
Q 1159 2488 1159 1978 
L 1159 0 
L 581 0 
L 581 3500 
L 1159 3500 
L 1159 2956 
Q 1356 3278 1631 3431 
Q 1906 3584 2284 3584 
Q 2666 3584 2933 3390 
Q 3200 3197 3328 2828 
z
" transform="scale(0.015625)"/>
      <path id="DejaVuSans-69" d="M 603 3500 
L 1178 3500 
L 1178 0 
L 603 0 
L 603 3500 
z
M 603 4863 
L 1178 4863 
L 1178 4134 
L 603 4134 
L 603 4863 
z
" transform="scale(0.015625)"/>
      <path id="DejaVuSans-6c" d="M 603 4863 
L 1178 4863 
L 1178 0 
L 603 0 
L 603 4863 
z
" transform="scale(0.015625)"/>
      <path id="DejaVuSans-6e" d="M 3513 2113 
L 3513 0 
L 2938 0 
L 2938 2094 
Q 2938 2591 2744 2837 
Q 2550 3084 2163 3084 
Q 1697 3084 1428 2787 
Q 1159 2491 1159 1978 
L 1159 0 
L 581 0 
L 581 3500 
L 1159 3500 
L 1159 2956 
Q 1366 3272 1645 3428 
Q 1925 3584 2291 3584 
Q 2894 3584 3203 3211 
Q 3513 2838 3513 2113 
z
" transform="scale(0.015625)"/>
      <path id="DejaVuSans-67" d="M 2906 1791 
Q 2906 2416 2648 2759 
Q 2391 3103 1925 3103 
Q 1463 3103 1205 2759 
Q 947 2416 947 1791 
Q 947 1169 1205 825 
Q 1463 481 1925 481 
Q 2391 481 2648 825 
Q 2906 1169 2906 1791 
z
M 3481 434 
Q 3481 -459 3084 -895 
Q 2688 -1331 1869 -1331 
Q 1566 -1331 1297 -1286 
Q 1028 -1241 775 -1147 
L 775 -588 
Q 1028 -725 1275 -790 
Q 1522 -856 1778 -856 
Q 2344 -856 2625 -561 
Q 2906 -266 2906 331 
L 2906 616 
Q 2728 306 2450 153 
Q 2172 0 1784 0 
Q 1141 0 747 490 
Q 353 981 353 1791 
Q 353 2603 747 3093 
Q 1141 3584 1784 3584 
Q 2172 3584 2450 3431 
Q 2728 3278 2906 2969 
L 2906 3500 
L 3481 3500 
L 3481 434 
z
" transform="scale(0.015625)"/>
     </defs>
     <use xlink:href="#DejaVuSans-53"/>
     <use xlink:href="#DejaVuSans-6d" x="63.476562"/>
     <use xlink:href="#DejaVuSans-69" x="160.888672"/>
     <use xlink:href="#DejaVuSans-6c" x="188.671875"/>
     <use xlink:href="#DejaVuSans-69" x="216.455078"/>
     <use xlink:href="#DejaVuSans-6e" x="244.238281"/>
     <use xlink:href="#DejaVuSans-67" x="307.617188"/>
    </g>
   </g>
  </g>
 </g>
 <defs>
  <clipPath id="p17163f7c71">
   <rect x="7.2" y="23.837812" width="223.2" height="277.2"/>
  </clipPath>
 </defs>
</svg>
